# Tiled2Unity generated file. Do not modify by hand.
# Wavefront file for 'FifthLevel_mesh_0004.obj'

# Vertices (Count = 20)
v -77.71429 -41.6 0
v -78.71429 -41.6 0
v -78.71429 -40.6 0
v -77.71429 -40.6 0
v -78.62857 -41.6 0
v -79.62857 -41.6 0
v -79.62857 -40.6 0
v -78.62857 -40.6 0
v -79.54285 -41.6 0
v -80.54285 -41.6 0
v -80.54285 -40.6 0
v -79.54285 -40.6 0
v -80.45715 -41.6 0
v -81.45715 -41.6 0
v -81.45715 -40.6 0
v -80.45715 -40.6 0
v -81.37143 -41.6 0
v -82.37143 -41.6 0
v -82.37143 -40.6 0
v -81.37143 -40.6 0

# Texture cooridinates (Count = 4)
vt 0.7089716 0.7713675
vt 0.785558 0.7713675
vt 0.785558 0.8461539
vt 0.7089716 0.8461539

# Normal
vn 0 0 -1

# Mesh description
g FifthLevel_mesh_0004

# Faces
f 1/1/1 2/2/1 3/3/1 4/4/1
f 5/1/1 6/2/1 7/3/1 8/4/1
f 9/1/1 10/2/1 11/3/1 12/4/1
f 13/1/1 14/2/1 15/3/1 16/4/1
f 17/1/1 18/2/1 19/3/1 20/4/1

