# Tiled2Unity generated file. Do not modify by hand.
# Wavefront file for 'FifthLevel_mesh_0002.obj'

# Vertices (Count = 480)
v -98.74286 -25.6 0
v -99.74286 -25.6 0
v -99.74286 -24.6 0
v -98.74286 -24.6 0
v -99.65714 -25.6 0
v -100.6571 -25.6 0
v -100.6571 -24.6 0
v -99.65714 -24.6 0
v -100.5714 -25.6 0
v -101.5714 -25.6 0
v -101.5714 -24.6 0
v -100.5714 -24.6 0
v -96.91428 -27.42857 0
v -97.91428 -27.42857 0
v -97.91428 -26.42857 0
v -96.91428 -26.42857 0
v -97.82858 -27.42857 0
v -98.82858 -27.42857 0
v -98.82858 -26.42857 0
v -97.82858 -26.42857 0
v -99.65714 -27.88571 0
v -100.6571 -27.88571 0
v -100.6571 -26.88571 0
v -99.65714 -26.88571 0
v -94.17143 -29.25714 0
v -95.17143 -29.25714 0
v -95.17143 -28.25714 0
v -94.17143 -28.25714 0
v -95.08572 -29.25714 0
v -96.08572 -29.25714 0
v -96.08572 -28.25714 0
v -95.08572 -28.25714 0
v -96 -29.25714 0
v -97 -29.25714 0
v -97 -28.25714 0
v -96 -28.25714 0
v -97.37143 -29.25714 0
v -98.37143 -29.25714 0
v -98.37143 -28.25714 0
v -97.37143 -28.25714 0
v -95.08572 -30.62857 0
v -96.08572 -30.62857 0
v -96.08572 -29.62857 0
v -95.08572 -29.62857 0
v -80 -31.08571 0
v -81 -31.08571 0
v -81 -30.08571 0
v -80 -30.08571 0
v -80.91428 -31.08571 0
v -81.91428 -31.08571 0
v -81.91428 -30.08571 0
v -80.91428 -30.08571 0
v -81.82858 -31.08571 0
v -82.82858 -31.08571 0
v -82.82858 -30.08571 0
v -81.82858 -30.08571 0
v -80.91428 -32.45714 0
v -81.91428 -32.45714 0
v -81.91428 -31.45714 0
v -80.91428 -31.45714 0
v -78.17143 -32.91429 0
v -79.17143 -32.91429 0
v -79.17143 -31.91429 0
v -78.17143 -31.91429 0
v -79.08572 -32.91429 0
v -80.08572 -32.91429 0
v -80.08572 -31.91429 0
v -79.08572 -31.91429 0
v -80.91428 -33.37143 0
v -81.91428 -33.37143 0
v -81.91428 -32.37143 0
v -80.91428 -32.37143 0
v -78.62857 -34.28571 0
v -79.62857 -34.28571 0
v -79.62857 -33.28571 0
v -78.62857 -33.28571 0
v -75.42857 -34.74286 0
v -76.42857 -34.74286 0
v -76.42857 -33.74286 0
v -75.42857 -33.74286 0
v -76.34286 -34.74286 0
v -77.34286 -34.74286 0
v -77.34286 -33.74286 0
v -76.34286 -33.74286 0
v -77.25714 -34.74286 0
v -78.25714 -34.74286 0
v -78.25714 -33.74286 0
v -77.25714 -33.74286 0
v -78.62857 -35.2 0
v -79.62857 -35.2 0
v -79.62857 -34.2 0
v -78.62857 -34.2 0
v -80.91428 -35.2 0
v -81.91428 -35.2 0
v -81.91428 -34.2 0
v -80.91428 -34.2 0
v -71.31429 -35.65714 0
v -72.31429 -35.65714 0
v -72.31429 -34.65714 0
v -71.31429 -34.65714 0
v -72.22857 -35.65714 0
v -73.22857 -35.65714 0
v -73.22857 -34.65714 0
v -72.22857 -34.65714 0
v -73.14286 -35.65714 0
v -74.14286 -35.65714 0
v -74.14286 -34.65714 0
v -73.14286 -34.65714 0
v -95.08572 -35.65714 0
v -96.08572 -35.65714 0
v -96.08572 -34.65714 0
v -95.08572 -34.65714 0
v -97.37143 -35.65714 0
v -98.37143 -35.65714 0
v -98.37143 -34.65714 0
v -97.37143 -34.65714 0
v -99.65714 -35.65714 0
v -100.6571 -35.65714 0
v -100.6571 -34.65714 0
v -99.65714 -34.65714 0
v -76.34286 -36.11428 0
v -77.34286 -36.11428 0
v -77.34286 -35.11428 0
v -76.34286 -35.11428 0
v -78.62857 -36.11428 0
v -79.62857 -36.11428 0
v -79.62857 -35.11428 0
v -78.62857 -35.11428 0
v -80.91428 -36.11428 0
v -81.91428 -36.11428 0
v -81.91428 -35.11428 0
v -80.91428 -35.11428 0
v -72.22857 -36.57143 0
v -73.22857 -36.57143 0
v -73.22857 -35.57143 0
v -72.22857 -35.57143 0
v -5.028572 -37.48571 0
v -6.028572 -37.48571 0
v -6.028572 -36.48571 0
v -5.028572 -36.48571 0
v -69.48572 -37.48571 0
v -70.48572 -37.48571 0
v -70.48572 -36.48571 0
v -69.48572 -36.48571 0
v -70.4 -37.48571 0
v -71.4 -37.48571 0
v -71.4 -36.48571 0
v -70.4 -36.48571 0
v -72.22857 -37.48571 0
v -73.22857 -37.48571 0
v -73.22857 -36.48571 0
v -72.22857 -36.48571 0
v -95.08572 -37.48571 0
v -96.08572 -37.48571 0
v -96.08572 -36.48571 0
v -95.08572 -36.48571 0
v -97.37143 -37.48571 0
v -98.37143 -37.48571 0
v -98.37143 -36.48571 0
v -97.37143 -36.48571 0
v -99.65714 -37.48571 0
v -100.6571 -37.48571 0
v -100.6571 -36.48571 0
v -99.65714 -36.48571 0
v -101.4857 -37.48571 0
v -102.4857 -37.48571 0
v -102.4857 -36.48571 0
v -101.4857 -36.48571 0
v -102.4 -37.48571 0
v -103.4 -37.48571 0
v -103.4 -36.48571 0
v -102.4 -36.48571 0
v -103.3143 -37.48571 0
v -104.3143 -37.48571 0
v -104.3143 -36.48571 0
v -103.3143 -36.48571 0
v -104.2286 -37.48571 0
v -105.2286 -37.48571 0
v -105.2286 -36.48571 0
v -104.2286 -36.48571 0
v -105.1429 -37.48571 0
v -106.1429 -37.48571 0
v -106.1429 -36.48571 0
v -105.1429 -36.48571 0
v -69.94286 -37.94286 0
v -70.94286 -37.94286 0
v -70.94286 -36.94286 0
v -69.94286 -36.94286 0
v -4.114286 -38.4 0
v -5.114286 -38.4 0
v -5.114286 -37.4 0
v -4.114286 -37.4 0
v -5.028572 -38.4 0
v -6.028572 -38.4 0
v -6.028572 -37.4 0
v -5.028572 -37.4 0
v -5.942857 -38.4 0
v -6.942857 -38.4 0
v -6.942857 -37.4 0
v -5.942857 -37.4 0
v -59.42857 -38.4 0
v -60.42857 -38.4 0
v -60.42857 -37.4 0
v -59.42857 -37.4 0
v -60.34286 -38.4 0
v -61.34286 -38.4 0
v -61.34286 -37.4 0
v -60.34286 -37.4 0
v -61.25714 -38.4 0
v -62.25714 -38.4 0
v -62.25714 -37.4 0
v -61.25714 -37.4 0
v -72.22857 -38.4 0
v -73.22857 -38.4 0
v -73.22857 -37.4 0
v -72.22857 -37.4 0
v -75.42857 -38.4 0
v -76.42857 -38.4 0
v -76.42857 -37.4 0
v -75.42857 -37.4 0
v -76.34286 -38.4 0
v -77.34286 -38.4 0
v -77.34286 -37.4 0
v -76.34286 -37.4 0
v -77.25714 -38.4 0
v -78.25714 -38.4 0
v -78.25714 -37.4 0
v -77.25714 -37.4 0
v -78.17143 -38.4 0
v -79.17143 -38.4 0
v -79.17143 -37.4 0
v -78.17143 -37.4 0
v -79.08572 -38.4 0
v -80.08572 -38.4 0
v -80.08572 -37.4 0
v -79.08572 -37.4 0
v -80 -38.4 0
v -81 -38.4 0
v -81 -37.4 0
v -80 -37.4 0
v -80.91428 -38.4 0
v -81.91428 -38.4 0
v -81.91428 -37.4 0
v -80.91428 -37.4 0
v -81.82858 -38.4 0
v -82.82858 -38.4 0
v -82.82858 -37.4 0
v -81.82858 -37.4 0
v -95.08572 -38.4 0
v -96.08572 -38.4 0
v -96.08572 -37.4 0
v -95.08572 -37.4 0
v -97.37143 -38.4 0
v -98.37143 -38.4 0
v -98.37143 -37.4 0
v -97.37143 -37.4 0
v -99.65714 -38.4 0
v -100.6571 -38.4 0
v -100.6571 -37.4 0
v -99.65714 -37.4 0
v -167.3143 -38.4 0
v -168.3143 -38.4 0
v -168.3143 -37.4 0
v -167.3143 -37.4 0
v -168.2286 -38.4 0
v -169.2286 -38.4 0
v -169.2286 -37.4 0
v -168.2286 -37.4 0
v -169.1429 -38.4 0
v -170.1429 -38.4 0
v -170.1429 -37.4 0
v -169.1429 -37.4 0
v -69.94286 -38.85714 0
v -70.94286 -38.85714 0
v -70.94286 -37.85714 0
v -69.94286 -37.85714 0
v -7.771429 -39.31429 0
v -8.771429 -39.31429 0
v -8.771429 -38.31429 0
v -7.771429 -38.31429 0
v -66.74286 -39.31429 0
v -67.74286 -39.31429 0
v -67.74286 -38.31429 0
v -66.74286 -38.31429 0
v -67.65714 -39.31429 0
v -68.65714 -39.31429 0
v -68.65714 -38.31429 0
v -67.65714 -38.31429 0
v -68.57143 -39.31429 0
v -69.57143 -39.31429 0
v -69.57143 -38.31429 0
v -68.57143 -38.31429 0
v -72.22857 -39.31429 0
v -73.22857 -39.31429 0
v -73.22857 -38.31429 0
v -72.22857 -38.31429 0
v -95.08572 -39.31429 0
v -96.08572 -39.31429 0
v -96.08572 -38.31429 0
v -95.08572 -38.31429 0
v -97.37143 -39.31429 0
v -98.37143 -39.31429 0
v -98.37143 -38.31429 0
v -97.37143 -38.31429 0
v -99.65714 -39.31429 0
v -100.6571 -39.31429 0
v -100.6571 -38.31429 0
v -99.65714 -38.31429 0
v -101.9429 -39.31429 0
v -102.9429 -39.31429 0
v -102.9429 -38.31429 0
v -101.9429 -38.31429 0
v -103.3143 -39.31429 0
v -104.3143 -39.31429 0
v -104.3143 -38.31429 0
v -103.3143 -38.31429 0
v -104.6857 -39.31429 0
v -105.6857 -39.31429 0
v -105.6857 -38.31429 0
v -104.6857 -38.31429 0
v -60.34286 -39.77143 0
v -61.34286 -39.77143 0
v -61.34286 -38.77143 0
v -60.34286 -38.77143 0
v -168.2286 -39.77143 0
v -169.2286 -39.77143 0
v -169.2286 -38.77143 0
v -168.2286 -38.77143 0
v -4.114286 -40.22857 0
v -5.114286 -40.22857 0
v -5.114286 -39.22857 0
v -4.114286 -39.22857 0
v -5.028572 -40.22857 0
v -6.028572 -40.22857 0
v -6.028572 -39.22857 0
v -5.028572 -39.22857 0
v -5.942857 -40.22857 0
v -6.942857 -40.22857 0
v -6.942857 -39.22857 0
v -5.942857 -39.22857 0
v -6.857143 -40.22857 0
v -7.857143 -40.22857 0
v -7.857143 -39.22857 0
v -6.857143 -39.22857 0
v -7.771429 -40.22857 0
v -8.771429 -40.22857 0
v -8.771429 -39.22857 0
v -7.771429 -39.22857 0
v -8.685715 -40.22857 0
v -9.685715 -40.22857 0
v -9.685715 -39.22857 0
v -8.685715 -39.22857 0
v -62.17143 -40.22857 0
v -63.17143 -40.22857 0
v -63.17143 -39.22857 0
v -62.17143 -39.22857 0
v -63.08572 -40.22857 0
v -64.08572 -40.22857 0
v -64.08572 -39.22857 0
v -63.08572 -39.22857 0
v -64 -40.22857 0
v -65 -40.22857 0
v -65 -39.22857 0
v -64 -39.22857 0
v -67.65714 -40.22857 0
v -68.65714 -40.22857 0
v -68.65714 -39.22857 0
v -67.65714 -39.22857 0
v -170.0571 -40.22857 0
v -171.0571 -40.22857 0
v -171.0571 -39.22857 0
v -170.0571 -39.22857 0
v -170.9714 -40.22857 0
v -171.9714 -40.22857 0
v -171.9714 -39.22857 0
v -170.9714 -39.22857 0
v -171.8857 -40.22857 0
v -172.8857 -40.22857 0
v -172.8857 -39.22857 0
v -171.8857 -39.22857 0
v -60.34286 -40.68571 0
v -61.34286 -40.68571 0
v -61.34286 -39.68571 0
v -60.34286 -39.68571 0
v -168.2286 -40.68571 0
v -169.2286 -40.68571 0
v -169.2286 -39.68571 0
v -168.2286 -39.68571 0
v -5.028572 -41.14286 0
v -6.028572 -41.14286 0
v -6.028572 -40.14286 0
v -5.028572 -40.14286 0
v -6.857143 -41.14286 0
v -7.857143 -41.14286 0
v -7.857143 -40.14286 0
v -6.857143 -40.14286 0
v -8.685715 -41.14286 0
v -9.685715 -41.14286 0
v -9.685715 -40.14286 0
v -8.685715 -40.14286 0
v -62.17143 -41.14286 0
v -63.17143 -41.14286 0
v -63.17143 -40.14286 0
v -62.17143 -40.14286 0
v -69.94286 -41.14286 0
v -70.94286 -41.14286 0
v -70.94286 -40.14286 0
v -69.94286 -40.14286 0
v -75.88571 -41.14286 0
v -76.88571 -41.14286 0
v -76.88571 -40.14286 0
v -75.88571 -40.14286 0
v -103.3143 -41.14286 0
v -104.3143 -41.14286 0
v -104.3143 -40.14286 0
v -103.3143 -40.14286 0
v -170.0571 -41.14286 0
v -171.0571 -41.14286 0
v -171.0571 -40.14286 0
v -170.0571 -40.14286 0
v -94.62857 -41.6 0
v -95.62857 -41.6 0
v -95.62857 -40.6 0
v -94.62857 -40.6 0
v -95.54285 -41.6 0
v -96.54285 -41.6 0
v -96.54285 -40.6 0
v -95.54285 -40.6 0
v -96.45715 -41.6 0
v -97.45715 -41.6 0
v -97.45715 -40.6 0
v -96.45715 -40.6 0
v -97.37143 -41.6 0
v -98.37143 -41.6 0
v -98.37143 -40.6 0
v -97.37143 -40.6 0
v -98.28571 -41.6 0
v -99.28571 -41.6 0
v -99.28571 -40.6 0
v -98.28571 -40.6 0
v -99.2 -41.6 0
v -100.2 -41.6 0
v -100.2 -40.6 0
v -99.2 -40.6 0
v -100.1143 -41.6 0
v -101.1143 -41.6 0
v -101.1143 -40.6 0
v -100.1143 -40.6 0
v -101.0286 -41.6 0
v -102.0286 -41.6 0
v -102.0286 -40.6 0
v -101.0286 -40.6 0
v -101.9429 -41.6 0
v -102.9429 -41.6 0
v -102.9429 -40.6 0
v -101.9429 -40.6 0
v -6.857143 -42.05714 0
v -7.857143 -42.05714 0
v -7.857143 -41.05714 0
v -6.857143 -41.05714 0
v -62.17143 -42.05714 0
v -63.17143 -42.05714 0
v -63.17143 -41.05714 0
v -62.17143 -41.05714 0
v -69.94286 -42.05714 0
v -70.94286 -42.05714 0
v -70.94286 -41.05714 0
v -69.94286 -41.05714 0
v -75.88571 -42.05714 0
v -76.88571 -42.05714 0
v -76.88571 -41.05714 0
v -75.88571 -41.05714 0
v -103.3143 -42.05714 0
v -104.3143 -42.05714 0
v -104.3143 -41.05714 0
v -103.3143 -41.05714 0
v -170.0571 -42.05714 0
v -171.0571 -42.05714 0
v -171.0571 -41.05714 0
v -170.0571 -41.05714 0

# Texture cooridinates (Count = 48)
vt 0.1428571 0.1428571
vt 0.2142857 0.1428571
vt 0.2142857 0.2857143
vt 0.1428571 0.2857143
vt 0.8571429 0.4285714
vt 0.9285714 0.4285714
vt 0.9285714 0.5714285
vt 0.8571429 0.5714285
vt 0.8571429 0.2857143
vt 0.9285714 0.2857143
vt 0.8571429 0
vt 0.9285714 0
vt 0.9285714 0.1428571
vt 0.8571429 0.1428571
vt 0.9285714 0.7142857
vt 0.8571429 0.7142857
vt 0.07142857 0
vt 0.1428571 0
vt 0.07142857 0.1428571
vt 0 0.1428571
vt 0.07142857 0.2857143
vt 0 0.2857143
vt 0.2142857 0
vt 0.2857143 0.1428571
vt 0.3571429 0.1428571
vt 0.3571429 0.2857143
vt 0.2857143 0.2857143
vt 0.4285714 0
vt 0.5 0
vt 0.5 0.1428571
vt 0.4285714 0.1428571
vt 0.7857143 0.4285714
vt 0.7857143 0.5714285
vt 0.7142857 0.8571429
vt 0.7857143 0.8571429
vt 0.7857143 1
vt 0.7142857 1
vt 0.8571429 0.8571429
vt 0.9285714 0.8571429
vt 0.9285714 1
vt 0.8571429 1
vt 1 0.8571429
vt 1 1
vt 0.5 0.2857143
vt 0.4285714 0.2857143
vt 0.7142857 0.7142857
vt 0.7857143 0.7142857
vt 1 0.7142857

# Normal
vn 0 0 -1

# Mesh description
g FifthLevel_mesh_0002

# Faces
f 1/1/1 2/2/1 3/3/1 4/4/1
f 5/1/1 6/2/1 7/3/1 8/4/1
f 9/1/1 10/2/1 11/3/1 12/4/1
f 13/1/1 14/2/1 15/3/1 16/4/1
f 17/1/1 18/2/1 19/3/1 20/4/1
f 21/5/1 22/6/1 23/7/1 24/8/1
f 25/1/1 26/2/1 27/3/1 28/4/1
f 29/1/1 30/2/1 31/3/1 32/4/1
f 33/1/1 34/2/1 35/3/1 36/4/1
f 37/5/1 38/6/1 39/7/1 40/8/1
f 41/5/1 42/6/1 43/7/1 44/8/1
f 45/1/1 46/2/1 47/3/1 48/4/1
f 49/1/1 50/2/1 51/3/1 52/4/1
f 53/1/1 54/2/1 55/3/1 56/4/1
f 57/9/1 58/10/1 59/6/1 60/5/1
f 61/1/1 62/2/1 63/3/1 64/4/1
f 65/1/1 66/2/1 67/3/1 68/4/1
f 69/11/1 70/12/1 71/13/1 72/14/1
f 73/9/1 74/10/1 75/6/1 76/5/1
f 77/1/1 78/2/1 79/3/1 80/4/1
f 81/1/1 82/2/1 83/3/1 84/4/1
f 85/1/1 86/2/1 87/3/1 88/4/1
f 89/14/1 90/13/1 91/10/1 92/9/1
f 93/9/1 94/10/1 95/6/1 96/5/1
f 97/1/1 98/2/1 99/3/1 100/4/1
f 101/1/1 102/2/1 103/3/1 104/4/1
f 105/1/1 106/2/1 107/3/1 108/4/1
f 109/8/1 110/7/1 111/15/1 112/16/1
f 113/8/1 114/7/1 115/15/1 116/16/1
f 117/8/1 118/7/1 119/15/1 120/16/1
f 121/8/1 122/7/1 123/15/1 124/16/1
f 125/11/1 126/12/1 127/13/1 128/14/1
f 129/11/1 130/12/1 131/13/1 132/14/1
f 133/9/1 134/10/1 135/6/1 136/5/1
f 137/17/1 138/18/1 139/1/1 140/19/1
f 141/1/1 142/2/1 143/3/1 144/4/1
f 145/1/1 146/2/1 147/3/1 148/4/1
f 149/14/1 150/13/1 151/10/1 152/9/1
f 153/9/1 154/10/1 155/6/1 156/5/1
f 157/9/1 158/10/1 159/6/1 160/5/1
f 161/9/1 162/10/1 163/6/1 164/5/1
f 165/1/1 166/2/1 167/3/1 168/4/1
f 169/1/1 170/2/1 171/3/1 172/4/1
f 173/1/1 174/2/1 175/3/1 176/4/1
f 177/1/1 178/2/1 179/3/1 180/4/1
f 181/1/1 182/2/1 183/3/1 184/4/1
f 185/9/1 186/10/1 187/6/1 188/5/1
f 189/20/1 190/19/1 191/21/1 192/22/1
f 193/20/1 194/19/1 195/21/1 196/22/1
f 197/20/1 198/19/1 199/21/1 200/22/1
f 201/1/1 202/2/1 203/3/1 204/4/1
f 205/1/1 206/2/1 207/3/1 208/4/1
f 209/1/1 210/2/1 211/3/1 212/4/1
f 213/11/1 214/12/1 215/13/1 216/14/1
f 217/1/1 218/2/1 219/3/1 220/4/1
f 221/1/1 222/2/1 223/3/1 224/4/1
f 225/1/1 226/2/1 227/3/1 228/4/1
f 229/1/1 230/2/1 231/3/1 232/4/1
f 233/1/1 234/2/1 235/3/1 236/4/1
f 237/1/1 238/2/1 239/3/1 240/4/1
f 241/1/1 242/2/1 243/3/1 244/4/1
f 245/1/1 246/2/1 247/3/1 248/4/1
f 249/14/1 250/13/1 251/10/1 252/9/1
f 253/14/1 254/13/1 255/10/1 256/9/1
f 257/14/1 258/13/1 259/10/1 260/9/1
f 261/1/1 262/2/1 263/3/1 264/4/1
f 265/1/1 266/2/1 267/3/1 268/4/1
f 269/1/1 270/2/1 271/3/1 272/4/1
f 273/11/1 274/12/1 275/13/1 276/14/1
f 277/18/1 278/23/1 279/2/1 280/1/1
f 281/1/1 282/2/1 283/3/1 284/4/1
f 285/1/1 286/2/1 287/3/1 288/4/1
f 289/1/1 290/2/1 291/3/1 292/4/1
f 293/24/1 294/25/1 295/26/1 296/27/1
f 297/11/1 298/12/1 299/13/1 300/14/1
f 301/11/1 302/12/1 303/13/1 304/14/1
f 305/11/1 306/12/1 307/13/1 308/14/1
f 309/8/1 310/7/1 311/15/1 312/16/1
f 313/28/1 314/29/1 315/30/1 316/31/1
f 317/8/1 318/7/1 319/15/1 320/16/1
f 321/8/1 322/7/1 323/15/1 324/16/1
f 325/8/1 326/7/1 327/15/1 328/16/1
f 329/20/1 330/19/1 331/21/1 332/22/1
f 333/20/1 334/19/1 335/21/1 336/22/1
f 337/20/1 338/19/1 339/21/1 340/22/1
f 341/20/1 342/19/1 343/21/1 344/22/1
f 345/20/1 346/19/1 347/21/1 348/22/1
f 349/20/1 350/19/1 351/21/1 352/22/1
f 353/1/1 354/2/1 355/3/1 356/4/1
f 357/1/1 358/2/1 359/3/1 360/4/1
f 361/1/1 362/2/1 363/3/1 364/4/1
f 365/8/1 366/7/1 367/15/1 368/16/1
f 369/1/1 370/2/1 371/3/1 372/4/1
f 373/1/1 374/2/1 375/3/1 376/4/1
f 377/1/1 378/2/1 379/3/1 380/4/1
f 381/2/1 382/24/1 383/27/1 384/3/1
f 385/2/1 386/24/1 387/27/1 388/3/1
f 389/32/1 390/5/1 391/8/1 392/33/1
f 393/34/1 394/35/1 395/36/1 396/37/1
f 397/24/1 398/25/1 399/26/1 400/27/1
f 401/34/1 402/35/1 403/36/1 404/37/1
f 405/34/1 406/35/1 407/36/1 408/37/1
f 409/38/1 410/39/1 411/40/1 412/41/1
f 413/39/1 414/42/1 415/43/1 416/40/1
f 417/34/1 418/35/1 419/36/1 420/37/1
f 421/31/1 422/30/1 423/44/1 424/45/1
f 425/31/1 426/30/1 427/44/1 428/45/1
f 429/31/1 430/30/1 431/44/1 432/45/1
f 433/31/1 434/30/1 435/44/1 436/45/1
f 437/31/1 438/30/1 439/44/1 440/45/1
f 441/31/1 442/30/1 443/44/1 444/45/1
f 445/31/1 446/30/1 447/44/1 448/45/1
f 449/31/1 450/30/1 451/44/1 452/45/1
f 453/31/1 454/30/1 455/44/1 456/45/1
f 457/46/1 458/47/1 459/35/1 460/34/1
f 461/46/1 462/47/1 463/35/1 464/34/1
f 465/46/1 466/47/1 467/35/1 468/34/1
f 469/16/1 470/15/1 471/39/1 472/38/1
f 473/15/1 474/48/1 475/42/1 476/39/1
f 477/46/1 478/47/1 479/35/1 480/34/1

