# Tiled2Unity generated file. Do not modify by hand.
# Wavefront file for 'FifthLevel_mesh_0012.obj'

# Vertices (Count = 8)
v -64.91428 -42.05714 0
v -65.91428 -42.05714 0
v -65.91428 -41.05714 0
v -64.91428 -41.05714 0
v -65.82858 -42.05714 0
v -66.82858 -42.05714 0
v -66.82858 -41.05714 0
v -65.82858 -41.05714 0

# Texture cooridinates (Count = 4)
vt 0 0.07905984
vt 0.07658643 0.07905984
vt 0.07658643 0.1538461
vt 0 0.1538461

# Normal
vn 0 0 -1

# Mesh description
g FifthLevel_mesh_0012

# Faces
f 1/1/1 2/2/1 3/3/1 4/4/1
f 5/1/1 6/2/1 7/3/1 8/4/1

