# Tiled2Unity generated file. Do not modify by hand.
# Wavefront file for 'FifthLevel_mesh_0005.obj'

# Vertices (Count = 392)
v -133.9429 -8.228572 0
v -134.9429 -8.228572 0
v -134.9429 -7.228571 0
v -133.9429 -7.228571 0
v -134.8571 -8.228572 0
v -135.8571 -8.228572 0
v -135.8571 -7.228571 0
v -134.8571 -7.228571 0
v -133.0286 -9.142858 0
v -134.0286 -9.142858 0
v -134.0286 -8.142858 0
v -133.0286 -8.142858 0
v -133.9429 -9.142858 0
v -134.9429 -9.142858 0
v -134.9429 -8.142858 0
v -133.9429 -8.142858 0
v -134.8571 -9.142858 0
v -135.8571 -9.142858 0
v -135.8571 -8.142858 0
v -134.8571 -8.142858 0
v -135.7714 -9.142858 0
v -136.7714 -9.142858 0
v -136.7714 -8.142858 0
v -135.7714 -8.142858 0
v -133.0286 -10.05714 0
v -134.0286 -10.05714 0
v -134.0286 -9.057143 0
v -133.0286 -9.057143 0
v -133.9429 -10.05714 0
v -134.9429 -10.05714 0
v -134.9429 -9.057143 0
v -133.9429 -9.057143 0
v -134.8571 -10.05714 0
v -135.8571 -10.05714 0
v -135.8571 -9.057143 0
v -134.8571 -9.057143 0
v -135.7714 -10.05714 0
v -136.7714 -10.05714 0
v -136.7714 -9.057143 0
v -135.7714 -9.057143 0
v -133.9429 -10.97143 0
v -134.9429 -10.97143 0
v -134.9429 -9.971429 0
v -133.9429 -9.971429 0
v -134.8571 -10.97143 0
v -135.8571 -10.97143 0
v -135.8571 -9.971429 0
v -134.8571 -9.971429 0
v -126.6286 -11.42857 0
v -127.6286 -11.42857 0
v -127.6286 -10.42857 0
v -126.6286 -10.42857 0
v -127.5429 -11.42857 0
v -128.5429 -11.42857 0
v -128.5429 -10.42857 0
v -127.5429 -10.42857 0
v -133.9429 -11.88571 0
v -134.9429 -11.88571 0
v -134.9429 -10.88571 0
v -133.9429 -10.88571 0
v -134.8571 -11.88571 0
v -135.8571 -11.88571 0
v -135.8571 -10.88571 0
v -134.8571 -10.88571 0
v -125.7143 -12.34286 0
v -126.7143 -12.34286 0
v -126.7143 -11.34286 0
v -125.7143 -11.34286 0
v -126.6286 -12.34286 0
v -127.6286 -12.34286 0
v -127.6286 -11.34286 0
v -126.6286 -11.34286 0
v -127.5429 -12.34286 0
v -128.5429 -12.34286 0
v -128.5429 -11.34286 0
v -127.5429 -11.34286 0
v -128.4571 -12.34286 0
v -129.4571 -12.34286 0
v -129.4571 -11.34286 0
v -128.4571 -11.34286 0
v -133.0286 -12.8 0
v -134.0286 -12.8 0
v -134.0286 -11.8 0
v -133.0286 -11.8 0
v -133.9429 -12.8 0
v -134.9429 -12.8 0
v -134.9429 -11.8 0
v -133.9429 -11.8 0
v -134.8571 -12.8 0
v -135.8571 -12.8 0
v -135.8571 -11.8 0
v -134.8571 -11.8 0
v -125.7143 -13.25714 0
v -126.7143 -13.25714 0
v -126.7143 -12.25714 0
v -125.7143 -12.25714 0
v -126.6286 -13.25714 0
v -127.6286 -13.25714 0
v -127.6286 -12.25714 0
v -126.6286 -12.25714 0
v -127.5429 -13.25714 0
v -128.5429 -13.25714 0
v -128.5429 -12.25714 0
v -127.5429 -12.25714 0
v -128.4571 -13.25714 0
v -129.4571 -13.25714 0
v -129.4571 -12.25714 0
v -128.4571 -12.25714 0
v -132.1143 -13.71429 0
v -133.1143 -13.71429 0
v -133.1143 -12.71429 0
v -132.1143 -12.71429 0
v -133.0286 -13.71429 0
v -134.0286 -13.71429 0
v -134.0286 -12.71429 0
v -133.0286 -12.71429 0
v -133.9429 -13.71429 0
v -134.9429 -13.71429 0
v -134.9429 -12.71429 0
v -133.9429 -12.71429 0
v -134.8571 -13.71429 0
v -135.8571 -13.71429 0
v -135.8571 -12.71429 0
v -134.8571 -12.71429 0
v -126.6286 -14.17143 0
v -127.6286 -14.17143 0
v -127.6286 -13.17143 0
v -126.6286 -13.17143 0
v -127.5429 -14.17143 0
v -128.5429 -14.17143 0
v -128.5429 -13.17143 0
v -127.5429 -13.17143 0
v -130.2857 -14.62857 0
v -131.2857 -14.62857 0
v -131.2857 -13.62857 0
v -130.2857 -13.62857 0
v -131.2 -14.62857 0
v -132.2 -14.62857 0
v -132.2 -13.62857 0
v -131.2 -13.62857 0
v -132.1143 -14.62857 0
v -133.1143 -14.62857 0
v -133.1143 -13.62857 0
v -132.1143 -13.62857 0
v -133.0286 -14.62857 0
v -134.0286 -14.62857 0
v -134.0286 -13.62857 0
v -133.0286 -13.62857 0
v -133.9429 -14.62857 0
v -134.9429 -14.62857 0
v -134.9429 -13.62857 0
v -133.9429 -13.62857 0
v -134.8571 -14.62857 0
v -135.8571 -14.62857 0
v -135.8571 -13.62857 0
v -134.8571 -13.62857 0
v -126.6286 -15.08571 0
v -127.6286 -15.08571 0
v -127.6286 -14.08571 0
v -126.6286 -14.08571 0
v -127.5429 -15.08571 0
v -128.5429 -15.08571 0
v -128.5429 -14.08571 0
v -127.5429 -14.08571 0
v -129.3714 -15.54286 0
v -130.3714 -15.54286 0
v -130.3714 -14.54286 0
v -129.3714 -14.54286 0
v -130.2857 -15.54286 0
v -131.2857 -15.54286 0
v -131.2857 -14.54286 0
v -130.2857 -14.54286 0
v -131.2 -15.54286 0
v -132.2 -15.54286 0
v -132.2 -14.54286 0
v -131.2 -14.54286 0
v -132.1143 -15.54286 0
v -133.1143 -15.54286 0
v -133.1143 -14.54286 0
v -132.1143 -14.54286 0
v -133.0286 -15.54286 0
v -134.0286 -15.54286 0
v -134.0286 -14.54286 0
v -133.0286 -14.54286 0
v -133.9429 -15.54286 0
v -134.9429 -15.54286 0
v -134.9429 -14.54286 0
v -133.9429 -14.54286 0
v -134.8571 -15.54286 0
v -135.8571 -15.54286 0
v -135.8571 -14.54286 0
v -134.8571 -14.54286 0
v -126.6286 -16 0
v -127.6286 -16 0
v -127.6286 -15 0
v -126.6286 -15 0
v -127.5429 -16 0
v -128.5429 -16 0
v -128.5429 -15 0
v -127.5429 -15 0
v -128.4571 -16.45714 0
v -129.4571 -16.45714 0
v -129.4571 -15.45714 0
v -128.4571 -15.45714 0
v -129.3714 -16.45714 0
v -130.3714 -16.45714 0
v -130.3714 -15.45714 0
v -129.3714 -15.45714 0
v -130.2857 -16.45714 0
v -131.2857 -16.45714 0
v -131.2857 -15.45714 0
v -130.2857 -15.45714 0
v -131.2 -16.45714 0
v -132.2 -16.45714 0
v -132.2 -15.45714 0
v -131.2 -15.45714 0
v -132.1143 -16.45714 0
v -133.1143 -16.45714 0
v -133.1143 -15.45714 0
v -132.1143 -15.45714 0
v -133.0286 -16.45714 0
v -134.0286 -16.45714 0
v -134.0286 -15.45714 0
v -133.0286 -15.45714 0
v -133.9429 -16.45714 0
v -134.9429 -16.45714 0
v -134.9429 -15.45714 0
v -133.9429 -15.45714 0
v -134.8571 -16.45714 0
v -135.8571 -16.45714 0
v -135.8571 -15.45714 0
v -134.8571 -15.45714 0
v -135.7714 -16.45714 0
v -136.7714 -16.45714 0
v -136.7714 -15.45714 0
v -135.7714 -15.45714 0
v -126.6286 -16.91429 0
v -127.6286 -16.91429 0
v -127.6286 -15.91429 0
v -126.6286 -15.91429 0
v -127.5429 -16.91429 0
v -128.5429 -16.91429 0
v -128.5429 -15.91429 0
v -127.5429 -15.91429 0
v -128.4571 -16.91429 0
v -129.4571 -16.91429 0
v -129.4571 -15.91429 0
v -128.4571 -15.91429 0
v -129.3714 -16.91429 0
v -130.3714 -16.91429 0
v -130.3714 -15.91429 0
v -129.3714 -15.91429 0
v -130.2857 -16.91429 0
v -131.2857 -16.91429 0
v -131.2857 -15.91429 0
v -130.2857 -15.91429 0
v -131.2 -16.91429 0
v -132.2 -16.91429 0
v -132.2 -15.91429 0
v -131.2 -15.91429 0
v -132.1143 -16.91429 0
v -133.1143 -16.91429 0
v -133.1143 -15.91429 0
v -132.1143 -15.91429 0
v -133.0286 -16.91429 0
v -134.0286 -16.91429 0
v -134.0286 -15.91429 0
v -133.0286 -15.91429 0
v -133.9429 -16.91429 0
v -134.9429 -16.91429 0
v -134.9429 -15.91429 0
v -133.9429 -15.91429 0
v -134.8571 -16.91429 0
v -135.8571 -16.91429 0
v -135.8571 -15.91429 0
v -134.8571 -15.91429 0
v -135.7714 -16.91429 0
v -136.7714 -16.91429 0
v -136.7714 -15.91429 0
v -135.7714 -15.91429 0
v -136.6857 -16.91429 0
v -137.6857 -16.91429 0
v -137.6857 -15.91429 0
v -136.6857 -15.91429 0
v -126.6286 -17.82857 0
v -127.6286 -17.82857 0
v -127.6286 -16.82857 0
v -126.6286 -16.82857 0
v -127.5429 -17.82857 0
v -128.5429 -17.82857 0
v -128.5429 -16.82857 0
v -127.5429 -16.82857 0
v -128.4571 -17.82857 0
v -129.4571 -17.82857 0
v -129.4571 -16.82857 0
v -128.4571 -16.82857 0
v -129.3714 -17.82857 0
v -130.3714 -17.82857 0
v -130.3714 -16.82857 0
v -129.3714 -16.82857 0
v -130.2857 -17.82857 0
v -131.2857 -17.82857 0
v -131.2857 -16.82857 0
v -130.2857 -16.82857 0
v -131.2 -17.82857 0
v -132.2 -17.82857 0
v -132.2 -16.82857 0
v -131.2 -16.82857 0
v -132.1143 -17.82857 0
v -133.1143 -17.82857 0
v -133.1143 -16.82857 0
v -132.1143 -16.82857 0
v -133.0286 -17.82857 0
v -134.0286 -17.82857 0
v -134.0286 -16.82857 0
v -133.0286 -16.82857 0
v -133.9429 -17.82857 0
v -134.9429 -17.82857 0
v -134.9429 -16.82857 0
v -133.9429 -16.82857 0
v -134.8571 -17.82857 0
v -135.8571 -17.82857 0
v -135.8571 -16.82857 0
v -134.8571 -16.82857 0
v -135.7714 -17.82857 0
v -136.7714 -17.82857 0
v -136.7714 -16.82857 0
v -135.7714 -16.82857 0
v -136.6857 -17.82857 0
v -137.6857 -17.82857 0
v -137.6857 -16.82857 0
v -136.6857 -16.82857 0
v -137.6 -17.82857 0
v -138.6 -17.82857 0
v -138.6 -16.82857 0
v -137.6 -16.82857 0
v -126.6286 -18.74286 0
v -127.6286 -18.74286 0
v -127.6286 -17.74286 0
v -126.6286 -17.74286 0
v -127.5429 -18.74286 0
v -128.5429 -18.74286 0
v -128.5429 -17.74286 0
v -127.5429 -17.74286 0
v -128.4571 -18.74286 0
v -129.4571 -18.74286 0
v -129.4571 -17.74286 0
v -128.4571 -17.74286 0
v -129.3714 -18.74286 0
v -130.3714 -18.74286 0
v -130.3714 -17.74286 0
v -129.3714 -17.74286 0
v -130.2857 -18.74286 0
v -131.2857 -18.74286 0
v -131.2857 -17.74286 0
v -130.2857 -17.74286 0
v -131.2 -18.74286 0
v -132.2 -18.74286 0
v -132.2 -17.74286 0
v -131.2 -17.74286 0
v -132.1143 -18.74286 0
v -133.1143 -18.74286 0
v -133.1143 -17.74286 0
v -132.1143 -17.74286 0
v -133.0286 -18.74286 0
v -134.0286 -18.74286 0
v -134.0286 -17.74286 0
v -133.0286 -17.74286 0
v -133.9429 -18.74286 0
v -134.9429 -18.74286 0
v -134.9429 -17.74286 0
v -133.9429 -17.74286 0
v -134.8571 -18.74286 0
v -135.8571 -18.74286 0
v -135.8571 -17.74286 0
v -134.8571 -17.74286 0
v -135.7714 -18.74286 0
v -136.7714 -18.74286 0
v -136.7714 -17.74286 0
v -135.7714 -17.74286 0
v -136.6857 -18.74286 0
v -137.6857 -18.74286 0
v -137.6857 -17.74286 0
v -136.6857 -17.74286 0
v -137.6 -18.74286 0
v -138.6 -18.74286 0
v -138.6 -17.74286 0
v -137.6 -17.74286 0
v -138.5143 -18.74286 0
v -139.5143 -18.74286 0
v -139.5143 -17.74286 0
v -138.5143 -17.74286 0

# Texture cooridinates (Count = 40)
vt 0.7089716 0.3098291
vt 0.785558 0.3098291
vt 0.785558 0.3846154
vt 0.7089716 0.3846154
vt 0.8665208 0.3867521
vt 0.9431072 0.3867521
vt 0.9431072 0.4615384
vt 0.8665208 0.4615384
vt 0.8665208 0.4636752
vt 0.9431072 0.4636752
vt 0.9431072 0.5384616
vt 0.8665208 0.5384616
vt 0.8665208 0.3098291
vt 0.9431072 0.3098291
vt 0.9431072 0.3846154
vt 0.8665208 0.3846154
vt 0.7089716 0.1559829
vt 0.785558 0.1559829
vt 0.785558 0.2307692
vt 0.7089716 0.2307692
vt 0.5514223 0.1559829
vt 0.6280087 0.1559829
vt 0.6280087 0.2307692
vt 0.5514223 0.2307692
vt 0.8665208 0.6175214
vt 0.9431072 0.6175214
vt 0.9431072 0.6923077
vt 0.8665208 0.6923077
vt 0.8665208 0.7713675
vt 0.9431072 0.7713675
vt 0.9431072 0.8461539
vt 0.8665208 0.8461539
vt 0.8665208 0.232906
vt 0.9431072 0.232906
vt 0.9431072 0.3076923
vt 0.8665208 0.3076923
vt 0.8665208 0.5405983
vt 0.9431072 0.5405983
vt 0.9431072 0.6153846
vt 0.8665208 0.6153846

# Normal
vn 0 0 -1

# Mesh description
g FifthLevel_mesh_0005

# Faces
f 1/1/1 2/2/1 3/3/1 4/4/1
f 5/5/1 6/6/1 7/7/1 8/8/1
f 9/1/1 10/2/1 11/3/1 12/4/1
f 13/9/1 14/10/1 15/11/1 16/12/1
f 17/13/1 18/14/1 19/15/1 20/16/1
f 21/5/1 22/6/1 23/7/1 24/8/1
f 25/17/1 26/18/1 27/19/1 28/20/1
f 29/21/1 30/22/1 31/23/1 32/24/1
f 33/21/1 34/22/1 35/23/1 36/24/1
f 37/25/1 38/26/1 39/27/1 40/28/1
f 41/21/1 42/22/1 43/23/1 44/24/1
f 45/21/1 46/22/1 47/23/1 48/24/1
f 49/1/1 50/2/1 51/3/1 52/4/1
f 53/5/1 54/6/1 55/7/1 56/8/1
f 57/21/1 58/22/1 59/23/1 60/24/1
f 61/21/1 62/22/1 63/23/1 64/24/1
f 65/1/1 66/2/1 67/3/1 68/4/1
f 69/9/1 70/10/1 71/11/1 72/12/1
f 73/13/1 74/14/1 75/15/1 76/16/1
f 77/5/1 78/6/1 79/7/1 80/8/1
f 81/1/1 82/2/1 83/3/1 84/4/1
f 85/21/1 86/22/1 87/23/1 88/24/1
f 89/21/1 90/22/1 91/23/1 92/24/1
f 93/17/1 94/18/1 95/19/1 96/20/1
f 97/21/1 98/22/1 99/23/1 100/24/1
f 101/21/1 102/22/1 103/23/1 104/24/1
f 105/25/1 106/26/1 107/27/1 108/28/1
f 109/1/1 110/2/1 111/3/1 112/4/1
f 113/9/1 114/10/1 115/11/1 116/12/1
f 117/21/1 118/22/1 119/23/1 120/24/1
f 121/21/1 122/22/1 123/23/1 124/24/1
f 125/21/1 126/22/1 127/23/1 128/24/1
f 129/21/1 130/22/1 131/23/1 132/24/1
f 133/1/1 134/2/1 135/3/1 136/4/1
f 137/29/1 138/30/1 139/31/1 140/32/1
f 141/9/1 142/10/1 143/11/1 144/12/1
f 145/21/1 146/22/1 147/23/1 148/24/1
f 149/21/1 150/22/1 151/23/1 152/24/1
f 153/21/1 154/22/1 155/23/1 156/24/1
f 157/21/1 158/22/1 159/23/1 160/24/1
f 161/21/1 162/22/1 163/23/1 164/24/1
f 165/1/1 166/2/1 167/3/1 168/4/1
f 169/9/1 170/10/1 171/11/1 172/12/1
f 173/21/1 174/22/1 175/23/1 176/24/1
f 177/21/1 178/22/1 179/23/1 180/24/1
f 181/21/1 182/22/1 183/23/1 184/24/1
f 185/21/1 186/22/1 187/23/1 188/24/1
f 189/21/1 190/22/1 191/23/1 192/24/1
f 193/21/1 194/22/1 195/23/1 196/24/1
f 197/21/1 198/22/1 199/23/1 200/24/1
f 201/33/1 202/34/1 203/35/1 204/36/1
f 205/37/1 206/38/1 207/39/1 208/40/1
f 209/37/1 210/38/1 211/39/1 212/40/1
f 213/37/1 214/38/1 215/39/1 216/40/1
f 217/37/1 218/38/1 219/39/1 220/40/1
f 221/33/1 222/34/1 223/35/1 224/36/1
f 225/37/1 226/38/1 227/39/1 228/40/1
f 229/37/1 230/38/1 231/39/1 232/40/1
f 233/37/1 234/38/1 235/39/1 236/40/1
f 237/21/1 238/22/1 239/23/1 240/24/1
f 241/21/1 242/22/1 243/23/1 244/24/1
f 245/21/1 246/22/1 247/23/1 248/24/1
f 249/21/1 250/22/1 251/23/1 252/24/1
f 253/21/1 254/22/1 255/23/1 256/24/1
f 257/21/1 258/22/1 259/23/1 260/24/1
f 261/21/1 262/22/1 263/23/1 264/24/1
f 265/21/1 266/22/1 267/23/1 268/24/1
f 269/21/1 270/22/1 271/23/1 272/24/1
f 273/21/1 274/22/1 275/23/1 276/24/1
f 277/13/1 278/14/1 279/15/1 280/16/1
f 281/5/1 282/6/1 283/7/1 284/8/1
f 285/21/1 286/22/1 287/23/1 288/24/1
f 289/21/1 290/22/1 291/23/1 292/24/1
f 293/21/1 294/22/1 295/23/1 296/24/1
f 297/21/1 298/22/1 299/23/1 300/24/1
f 301/21/1 302/22/1 303/23/1 304/24/1
f 305/21/1 306/22/1 307/23/1 308/24/1
f 309/21/1 310/22/1 311/23/1 312/24/1
f 313/21/1 314/22/1 315/23/1 316/24/1
f 317/21/1 318/22/1 319/23/1 320/24/1
f 321/21/1 322/22/1 323/23/1 324/24/1
f 325/21/1 326/22/1 327/23/1 328/24/1
f 329/13/1 330/14/1 331/15/1 332/16/1
f 333/5/1 334/6/1 335/7/1 336/8/1
f 337/21/1 338/22/1 339/23/1 340/24/1
f 341/21/1 342/22/1 343/23/1 344/24/1
f 345/21/1 346/22/1 347/23/1 348/24/1
f 349/21/1 350/22/1 351/23/1 352/24/1
f 353/21/1 354/22/1 355/23/1 356/24/1
f 357/21/1 358/22/1 359/23/1 360/24/1
f 361/21/1 362/22/1 363/23/1 364/24/1
f 365/21/1 366/22/1 367/23/1 368/24/1
f 369/21/1 370/22/1 371/23/1 372/24/1
f 373/21/1 374/22/1 375/23/1 376/24/1
f 377/21/1 378/22/1 379/23/1 380/24/1
f 381/21/1 382/22/1 383/23/1 384/24/1
f 385/13/1 386/14/1 387/15/1 388/16/1
f 389/5/1 390/6/1 391/7/1 392/8/1

