# Tiled2Unity generated file. Do not modify by hand.
# Wavefront file for 'FifthLevel_mesh_0007.obj'

# Vertices (Count = 16)
v -26.97143 -35.2 0
v -27.97143 -35.2 0
v -27.97143 -34.2 0
v -26.97143 -34.2 0
v -27.88571 -35.2 0
v -28.88571 -35.2 0
v -28.88571 -34.2 0
v -27.88571 -34.2 0
v -28.8 -35.2 0
v -29.8 -35.2 0
v -29.8 -34.2 0
v -28.8 -34.2 0
v -29.71429 -35.2 0
v -30.71429 -35.2 0
v -30.71429 -34.2 0
v -29.71429 -34.2 0

# Texture cooridinates (Count = 6)
vt 0.5 0.1428571
vt 0.5714286 0.1428571
vt 0.5714286 0.2857143
vt 0.5 0.2857143
vt 0.4285714 0.1428571
vt 0.4285714 0.2857143

# Normal
vn 0 0 -1

# Mesh description
g FifthLevel_mesh_0007

# Faces
f 1/1/1 2/2/1 3/3/1 4/4/1
f 5/5/1 6/1/1 7/4/1 8/6/1
f 9/5/1 10/1/1 11/4/1 12/6/1
f 13/5/1 14/1/1 15/4/1 16/6/1

