# Tiled2Unity generated file. Do not modify by hand.
# Wavefront file for 'ThirdLevel_mesh_0013.obj'

# Vertices (Count = 32)
v -7.314286 -41.6 0
v -8.314286 -41.6 0
v -8.314286 -40.6 0
v -7.314286 -40.6 0
v -10.05714 -41.6 0
v -11.05714 -41.6 0
v -11.05714 -40.6 0
v -10.05714 -40.6 0
v -7.314286 -42.05714 0
v -8.314286 -42.05714 0
v -8.314286 -41.05714 0
v -7.314286 -41.05714 0
v -10.05714 -42.05714 0
v -11.05714 -42.05714 0
v -11.05714 -41.05714 0
v -10.05714 -41.05714 0
v -7.314286 -42.51429 0
v -8.314286 -42.51429 0
v -8.314286 -41.51429 0
v -7.314286 -41.51429 0
v -10.05714 -42.51429 0
v -11.05714 -42.51429 0
v -11.05714 -41.51429 0
v -10.05714 -41.51429 0
v -7.314286 -42.97143 0
v -8.314286 -42.97143 0
v -8.314286 -41.97143 0
v -7.314286 -41.97143 0
v -10.05714 -42.97143 0
v -11.05714 -42.97143 0
v -11.05714 -41.97143 0
v -10.05714 -41.97143 0

# Texture cooridinates (Count = 8)
vt 0.8571429 0.2857143
vt 0.9285714 0.2857143
vt 0.9285714 0.4285714
vt 0.8571429 0.4285714
vt 0.8571429 0.1428571
vt 0.9285714 0.1428571
vt 0.8571429 0
vt 0.9285714 0

# Normal
vn 0 0 -1

# Mesh description
g ThirdLevel_mesh_0013

# Faces
f 1/1/1 2/2/1 3/3/1 4/4/1
f 5/1/1 6/2/1 7/3/1 8/4/1
f 9/1/1 10/2/1 11/3/1 12/4/1
f 13/1/1 14/2/1 15/3/1 16/4/1
f 17/5/1 18/6/1 19/2/1 20/1/1
f 21/5/1 22/6/1 23/2/1 24/1/1
f 25/7/1 26/8/1 27/6/1 28/5/1
f 29/7/1 30/8/1 31/6/1 32/5/1

