# Tiled2Unity generated file. Do not modify by hand.
# Wavefront file for 'ThirdLevel_mesh_0002.obj'

# Vertices (Count = 352)
v -6.4 -40.22857 0
v -7.4 -40.22857 0
v -7.4 -39.22857 0
v -6.4 -39.22857 0
v -7.314286 -40.22857 0
v -8.314286 -40.22857 0
v -8.314286 -39.22857 0
v -7.314286 -39.22857 0
v -7.771429 -40.22857 0
v -8.771429 -40.22857 0
v -8.771429 -39.22857 0
v -7.771429 -39.22857 0
v -8.228572 -40.22857 0
v -9.228572 -40.22857 0
v -9.228572 -39.22857 0
v -8.228572 -39.22857 0
v -9.142858 -40.22857 0
v -10.14286 -40.22857 0
v -10.14286 -39.22857 0
v -9.142858 -39.22857 0
v -10.51429 -40.22857 0
v -11.51429 -40.22857 0
v -11.51429 -39.22857 0
v -10.51429 -39.22857 0
v -10.97143 -40.22857 0
v -11.97143 -40.22857 0
v -11.97143 -39.22857 0
v -10.97143 -39.22857 0
v -11.88571 -40.22857 0
v -12.88571 -40.22857 0
v -12.88571 -39.22857 0
v -11.88571 -39.22857 0
v -6.4 -40.68571 0
v -7.4 -40.68571 0
v -7.4 -39.68571 0
v -6.4 -39.68571 0
v -6.857143 -40.68571 0
v -7.857143 -40.68571 0
v -7.857143 -39.68571 0
v -6.857143 -39.68571 0
v -7.314286 -40.68571 0
v -8.314286 -40.68571 0
v -8.314286 -39.68571 0
v -7.314286 -39.68571 0
v -7.771429 -40.68571 0
v -8.771429 -40.68571 0
v -8.771429 -39.68571 0
v -7.771429 -39.68571 0
v -8.228572 -40.68571 0
v -9.228572 -40.68571 0
v -9.228572 -39.68571 0
v -8.228572 -39.68571 0
v -9.142858 -40.68571 0
v -10.14286 -40.68571 0
v -10.14286 -39.68571 0
v -9.142858 -39.68571 0
v -9.6 -40.68571 0
v -10.6 -40.68571 0
v -10.6 -39.68571 0
v -9.6 -39.68571 0
v -10.97143 -40.68571 0
v -11.97143 -40.68571 0
v -11.97143 -39.68571 0
v -10.97143 -39.68571 0
v -11.88571 -40.68571 0
v -12.88571 -40.68571 0
v -12.88571 -39.68571 0
v -11.88571 -39.68571 0
v -12.34286 -40.68571 0
v -13.34286 -40.68571 0
v -13.34286 -39.68571 0
v -12.34286 -39.68571 0
v -6.4 -41.6 0
v -7.4 -41.6 0
v -7.4 -40.6 0
v -6.4 -40.6 0
v -6.857143 -41.6 0
v -7.857143 -41.6 0
v -7.857143 -40.6 0
v -6.857143 -40.6 0
v -8.228572 -41.6 0
v -9.228572 -41.6 0
v -9.228572 -40.6 0
v -8.228572 -40.6 0
v -9.142858 -41.6 0
v -10.14286 -41.6 0
v -10.14286 -40.6 0
v -9.142858 -40.6 0
v -9.6 -41.6 0
v -10.6 -41.6 0
v -10.6 -40.6 0
v -9.6 -40.6 0
v -10.51429 -41.6 0
v -11.51429 -41.6 0
v -11.51429 -40.6 0
v -10.51429 -40.6 0
v -11.88571 -41.6 0
v -12.88571 -41.6 0
v -12.88571 -40.6 0
v -11.88571 -40.6 0
v -12.34286 -41.6 0
v -13.34286 -41.6 0
v -13.34286 -40.6 0
v -12.34286 -40.6 0
v -12.8 -41.6 0
v -13.8 -41.6 0
v -13.8 -40.6 0
v -12.8 -40.6 0
v -6.4 -42.05714 0
v -7.4 -42.05714 0
v -7.4 -41.05714 0
v -6.4 -41.05714 0
v -6.857143 -42.05714 0
v -7.857143 -42.05714 0
v -7.857143 -41.05714 0
v -6.857143 -41.05714 0
v -7.771429 -42.05714 0
v -8.771429 -42.05714 0
v -8.771429 -41.05714 0
v -7.771429 -41.05714 0
v -8.228572 -42.05714 0
v -9.228572 -42.05714 0
v -9.228572 -41.05714 0
v -8.228572 -41.05714 0
v -9.142858 -42.05714 0
v -10.14286 -42.05714 0
v -10.14286 -41.05714 0
v -9.142858 -41.05714 0
v -10.51429 -42.05714 0
v -11.51429 -42.05714 0
v -11.51429 -41.05714 0
v -10.51429 -41.05714 0
v -10.97143 -42.05714 0
v -11.97143 -42.05714 0
v -11.97143 -41.05714 0
v -10.97143 -41.05714 0
v -11.88571 -42.05714 0
v -12.88571 -42.05714 0
v -12.88571 -41.05714 0
v -11.88571 -41.05714 0
v -12.34286 -42.05714 0
v -13.34286 -42.05714 0
v -13.34286 -41.05714 0
v -12.34286 -41.05714 0
v -12.8 -42.05714 0
v -13.8 -42.05714 0
v -13.8 -41.05714 0
v -12.8 -41.05714 0
v -6.4 -42.97143 0
v -7.4 -42.97143 0
v -7.4 -41.97143 0
v -6.4 -41.97143 0
v -6.857143 -42.97143 0
v -7.857143 -42.97143 0
v -7.857143 -41.97143 0
v -6.857143 -41.97143 0
v -7.771429 -42.97143 0
v -8.771429 -42.97143 0
v -8.771429 -41.97143 0
v -7.771429 -41.97143 0
v -8.228572 -42.97143 0
v -9.228572 -42.97143 0
v -9.228572 -41.97143 0
v -8.228572 -41.97143 0
v -9.142858 -42.97143 0
v -10.14286 -42.97143 0
v -10.14286 -41.97143 0
v -9.142858 -41.97143 0
v -9.6 -42.97143 0
v -10.6 -42.97143 0
v -10.6 -41.97143 0
v -9.6 -41.97143 0
v -10.51429 -42.97143 0
v -11.51429 -42.97143 0
v -11.51429 -41.97143 0
v -10.51429 -41.97143 0
v -10.97143 -42.97143 0
v -11.97143 -42.97143 0
v -11.97143 -41.97143 0
v -10.97143 -41.97143 0
v -11.88571 -42.97143 0
v -12.88571 -42.97143 0
v -12.88571 -41.97143 0
v -11.88571 -41.97143 0
v -6.4 -43.42857 0
v -7.4 -43.42857 0
v -7.4 -42.42857 0
v -6.4 -42.42857 0
v -6.857143 -43.42857 0
v -7.857143 -43.42857 0
v -7.857143 -42.42857 0
v -6.857143 -42.42857 0
v -7.771429 -43.42857 0
v -8.771429 -43.42857 0
v -8.771429 -42.42857 0
v -7.771429 -42.42857 0
v -8.228572 -43.42857 0
v -9.228572 -43.42857 0
v -9.228572 -42.42857 0
v -8.228572 -42.42857 0
v -9.142858 -43.42857 0
v -10.14286 -43.42857 0
v -10.14286 -42.42857 0
v -9.142858 -42.42857 0
v -9.6 -43.42857 0
v -10.6 -43.42857 0
v -10.6 -42.42857 0
v -9.6 -42.42857 0
v -10.51429 -43.42857 0
v -11.51429 -43.42857 0
v -11.51429 -42.42857 0
v -10.51429 -42.42857 0
v -10.97143 -43.42857 0
v -11.97143 -43.42857 0
v -11.97143 -42.42857 0
v -10.97143 -42.42857 0
v -11.88571 -43.42857 0
v -12.88571 -43.42857 0
v -12.88571 -42.42857 0
v -11.88571 -42.42857 0
v -12.8 -43.42857 0
v -13.8 -43.42857 0
v -13.8 -42.42857 0
v -12.8 -42.42857 0
v -6.4 -44.34286 0
v -7.4 -44.34286 0
v -7.4 -43.34286 0
v -6.4 -43.34286 0
v -6.857143 -44.34286 0
v -7.857143 -44.34286 0
v -7.857143 -43.34286 0
v -6.857143 -43.34286 0
v -7.771429 -44.34286 0
v -8.771429 -44.34286 0
v -8.771429 -43.34286 0
v -7.771429 -43.34286 0
v -8.228572 -44.34286 0
v -9.228572 -44.34286 0
v -9.228572 -43.34286 0
v -8.228572 -43.34286 0
v -9.142858 -44.34286 0
v -10.14286 -44.34286 0
v -10.14286 -43.34286 0
v -9.142858 -43.34286 0
v -9.6 -44.34286 0
v -10.6 -44.34286 0
v -10.6 -43.34286 0
v -9.6 -43.34286 0
v -10.51429 -44.34286 0
v -11.51429 -44.34286 0
v -11.51429 -43.34286 0
v -10.51429 -43.34286 0
v -10.97143 -44.34286 0
v -11.97143 -44.34286 0
v -11.97143 -43.34286 0
v -10.97143 -43.34286 0
v -11.88571 -44.34286 0
v -12.88571 -44.34286 0
v -12.88571 -43.34286 0
v -11.88571 -43.34286 0
v -12.8 -44.34286 0
v -13.8 -44.34286 0
v -13.8 -43.34286 0
v -12.8 -43.34286 0
v -6.4 -44.8 0
v -7.4 -44.8 0
v -7.4 -43.8 0
v -6.4 -43.8 0
v -6.857143 -44.8 0
v -7.857143 -44.8 0
v -7.857143 -43.8 0
v -6.857143 -43.8 0
v -7.771429 -44.8 0
v -8.771429 -44.8 0
v -8.771429 -43.8 0
v -7.771429 -43.8 0
v -8.228572 -44.8 0
v -9.228572 -44.8 0
v -9.228572 -43.8 0
v -8.228572 -43.8 0
v -9.142858 -44.8 0
v -10.14286 -44.8 0
v -10.14286 -43.8 0
v -9.142858 -43.8 0
v -9.6 -44.8 0
v -10.6 -44.8 0
v -10.6 -43.8 0
v -9.6 -43.8 0
v -10.51429 -44.8 0
v -11.51429 -44.8 0
v -11.51429 -43.8 0
v -10.51429 -43.8 0
v -10.97143 -44.8 0
v -11.97143 -44.8 0
v -11.97143 -43.8 0
v -10.97143 -43.8 0
v -11.88571 -44.8 0
v -12.88571 -44.8 0
v -12.88571 -43.8 0
v -11.88571 -43.8 0
v -12.34286 -44.8 0
v -13.34286 -44.8 0
v -13.34286 -43.8 0
v -12.34286 -43.8 0
v -12.8 -44.8 0
v -13.8 -44.8 0
v -13.8 -43.8 0
v -12.8 -43.8 0
v -6.4 -45.25714 0
v -7.4 -45.25714 0
v -7.4 -44.25714 0
v -6.4 -44.25714 0
v -6.857143 -45.25714 0
v -7.857143 -45.25714 0
v -7.857143 -44.25714 0
v -6.857143 -44.25714 0
v -7.771429 -45.25714 0
v -8.771429 -45.25714 0
v -8.771429 -44.25714 0
v -7.771429 -44.25714 0
v -8.228572 -45.25714 0
v -9.228572 -45.25714 0
v -9.228572 -44.25714 0
v -8.228572 -44.25714 0
v -9.142858 -45.25714 0
v -10.14286 -45.25714 0
v -10.14286 -44.25714 0
v -9.142858 -44.25714 0
v -9.6 -45.25714 0
v -10.6 -45.25714 0
v -10.6 -44.25714 0
v -9.6 -44.25714 0
v -10.51429 -45.25714 0
v -11.51429 -45.25714 0
v -11.51429 -44.25714 0
v -10.51429 -44.25714 0
v -10.97143 -45.25714 0
v -11.97143 -45.25714 0
v -11.97143 -44.25714 0
v -10.97143 -44.25714 0
v -11.88571 -45.25714 0
v -12.88571 -45.25714 0
v -12.88571 -44.25714 0
v -11.88571 -44.25714 0
v -12.34286 -45.25714 0
v -13.34286 -45.25714 0
v -13.34286 -44.25714 0
v -12.34286 -44.25714 0
v -12.8 -45.25714 0
v -13.8 -45.25714 0
v -13.8 -44.25714 0
v -12.8 -44.25714 0

# Texture cooridinates (Count = 16)
vt 0.4285714 0.8571429
vt 0.5 0.8571429
vt 0.5 1
vt 0.4285714 1
vt 0.5714286 0.8571429
vt 0.5714286 1
vt 0.6428571 0.8571429
vt 0.6428571 1
vt 0.4285714 0.7142857
vt 0.5 0.7142857
vt 0.5714286 0.7142857
vt 0.6428571 0.7142857
vt 0.4285714 0.5714285
vt 0.5 0.5714285
vt 0.5714286 0.5714285
vt 0.6428571 0.5714285

# Normal
vn 0 0 -1

# Mesh description
g ThirdLevel_mesh_0002

# Faces
f 1/1/1 2/2/1 3/3/1 4/4/1
f 5/2/1 6/5/1 7/6/1 8/3/1
f 9/2/1 10/5/1 11/6/1 12/3/1
f 13/5/1 14/7/1 15/8/1 16/6/1
f 17/1/1 18/2/1 19/3/1 20/4/1
f 21/2/1 22/5/1 23/6/1 24/3/1
f 25/5/1 26/7/1 27/8/1 28/6/1
f 29/1/1 30/2/1 31/3/1 32/4/1
f 33/9/1 34/10/1 35/2/1 36/1/1
f 37/10/1 38/11/1 39/5/1 40/2/1
f 41/10/1 42/11/1 43/5/1 44/2/1
f 45/10/1 46/11/1 47/5/1 48/2/1
f 49/11/1 50/12/1 51/7/1 52/5/1
f 53/9/1 54/10/1 55/2/1 56/1/1
f 57/10/1 58/11/1 59/5/1 60/2/1
f 61/11/1 62/12/1 63/7/1 64/5/1
f 65/9/1 66/10/1 67/2/1 68/1/1
f 69/10/1 70/11/1 71/5/1 72/2/1
f 73/1/1 74/2/1 75/3/1 76/4/1
f 77/2/1 78/5/1 79/6/1 80/3/1
f 81/5/1 82/7/1 83/8/1 84/6/1
f 85/1/1 86/2/1 87/3/1 88/4/1
f 89/2/1 90/5/1 91/6/1 92/3/1
f 93/2/1 94/5/1 95/6/1 96/3/1
f 97/1/1 98/2/1 99/3/1 100/4/1
f 101/2/1 102/5/1 103/6/1 104/3/1
f 105/5/1 106/7/1 107/8/1 108/6/1
f 109/9/1 110/10/1 111/2/1 112/1/1
f 113/10/1 114/11/1 115/5/1 116/2/1
f 117/10/1 118/11/1 119/5/1 120/2/1
f 121/11/1 122/12/1 123/7/1 124/5/1
f 125/9/1 126/10/1 127/2/1 128/1/1
f 129/10/1 130/11/1 131/5/1 132/2/1
f 133/11/1 134/12/1 135/7/1 136/5/1
f 137/9/1 138/10/1 139/2/1 140/1/1
f 141/10/1 142/11/1 143/5/1 144/2/1
f 145/11/1 146/12/1 147/7/1 148/5/1
f 149/1/1 150/2/1 151/3/1 152/4/1
f 153/2/1 154/5/1 155/6/1 156/3/1
f 157/2/1 158/5/1 159/6/1 160/3/1
f 161/5/1 162/7/1 163/8/1 164/6/1
f 165/1/1 166/2/1 167/3/1 168/4/1
f 169/2/1 170/5/1 171/6/1 172/3/1
f 173/2/1 174/5/1 175/6/1 176/3/1
f 177/5/1 178/7/1 179/8/1 180/6/1
f 181/1/1 182/2/1 183/3/1 184/4/1
f 185/9/1 186/10/1 187/2/1 188/1/1
f 189/10/1 190/11/1 191/5/1 192/2/1
f 193/10/1 194/11/1 195/5/1 196/2/1
f 197/11/1 198/12/1 199/7/1 200/5/1
f 201/9/1 202/10/1 203/2/1 204/1/1
f 205/10/1 206/11/1 207/5/1 208/2/1
f 209/10/1 210/11/1 211/5/1 212/2/1
f 213/11/1 214/12/1 215/7/1 216/5/1
f 217/9/1 218/10/1 219/2/1 220/1/1
f 221/11/1 222/12/1 223/7/1 224/5/1
f 225/1/1 226/2/1 227/3/1 228/4/1
f 229/2/1 230/5/1 231/6/1 232/3/1
f 233/2/1 234/5/1 235/6/1 236/3/1
f 237/5/1 238/7/1 239/8/1 240/6/1
f 241/1/1 242/2/1 243/3/1 244/4/1
f 245/2/1 246/5/1 247/6/1 248/3/1
f 249/2/1 250/5/1 251/6/1 252/3/1
f 253/5/1 254/7/1 255/8/1 256/6/1
f 257/1/1 258/2/1 259/3/1 260/4/1
f 261/5/1 262/7/1 263/8/1 264/6/1
f 265/9/1 266/10/1 267/2/1 268/1/1
f 269/10/1 270/11/1 271/5/1 272/2/1
f 273/10/1 274/11/1 275/5/1 276/2/1
f 277/11/1 278/12/1 279/7/1 280/5/1
f 281/9/1 282/10/1 283/2/1 284/1/1
f 285/10/1 286/11/1 287/5/1 288/2/1
f 289/10/1 290/11/1 291/5/1 292/2/1
f 293/11/1 294/12/1 295/7/1 296/5/1
f 297/9/1 298/10/1 299/2/1 300/1/1
f 301/10/1 302/11/1 303/5/1 304/2/1
f 305/11/1 306/12/1 307/7/1 308/5/1
f 309/13/1 310/14/1 311/10/1 312/9/1
f 313/14/1 314/15/1 315/11/1 316/10/1
f 317/14/1 318/15/1 319/11/1 320/10/1
f 321/15/1 322/16/1 323/12/1 324/11/1
f 325/13/1 326/14/1 327/10/1 328/9/1
f 329/14/1 330/15/1 331/11/1 332/10/1
f 333/14/1 334/15/1 335/11/1 336/10/1
f 337/15/1 338/16/1 339/12/1 340/11/1
f 341/13/1 342/14/1 343/10/1 344/9/1
f 345/14/1 346/15/1 347/11/1 348/10/1
f 349/15/1 350/16/1 351/12/1 352/11/1

