# Tiled2Unity generated file. Do not modify by hand.
# Wavefront file for 'ThirdLevel_mesh_0010.obj'

# Vertices (Count = 48)
v -139.8857 -10.05714 0
v -140.8857 -10.05714 0
v -140.8857 -9.057143 0
v -139.8857 -9.057143 0
v -140.8 -10.05714 0
v -141.8 -10.05714 0
v -141.8 -9.057143 0
v -140.8 -9.057143 0
v -139.8857 -10.97143 0
v -140.8857 -10.97143 0
v -140.8857 -9.971429 0
v -139.8857 -9.971429 0
v -140.8 -10.97143 0
v -141.8 -10.97143 0
v -141.8 -9.971429 0
v -140.8 -9.971429 0
v -139.8857 -11.88571 0
v -140.8857 -11.88571 0
v -140.8857 -10.88571 0
v -139.8857 -10.88571 0
v -140.8 -11.88571 0
v -141.8 -11.88571 0
v -141.8 -10.88571 0
v -140.8 -10.88571 0
v -139.8857 -12.8 0
v -140.8857 -12.8 0
v -140.8857 -11.8 0
v -139.8857 -11.8 0
v -140.8 -12.8 0
v -141.8 -12.8 0
v -141.8 -11.8 0
v -140.8 -11.8 0
v -139.8857 -13.71429 0
v -140.8857 -13.71429 0
v -140.8857 -12.71429 0
v -139.8857 -12.71429 0
v -140.8 -13.71429 0
v -141.8 -13.71429 0
v -141.8 -12.71429 0
v -140.8 -12.71429 0
v -139.8857 -14.62857 0
v -140.8857 -14.62857 0
v -140.8857 -13.62857 0
v -139.8857 -13.62857 0
v -140.8 -14.62857 0
v -141.8 -14.62857 0
v -141.8 -13.62857 0
v -140.8 -13.62857 0

# Texture cooridinates (Count = 8)
vt 0.7857143 0.5714285
vt 0.8571429 0.5714285
vt 0.8571429 0.7142857
vt 0.7857143 0.7142857
vt 0.9285714 0.5714285
vt 1 0.5714285
vt 1 0.7142857
vt 0.9285714 0.7142857

# Normal
vn 0 0 -1

# Mesh description
g ThirdLevel_mesh_0010

# Faces
f 1/1/1 2/2/1 3/3/1 4/4/1
f 5/5/1 6/6/1 7/7/1 8/8/1
f 9/2/1 10/5/1 11/8/1 12/3/1
f 13/2/1 14/5/1 15/8/1 16/3/1
f 17/2/1 18/5/1 19/8/1 20/3/1
f 21/2/1 22/5/1 23/8/1 24/3/1
f 25/2/1 26/5/1 27/8/1 28/3/1
f 29/2/1 30/5/1 31/8/1 32/3/1
f 33/2/1 34/5/1 35/8/1 36/3/1
f 37/2/1 38/5/1 39/8/1 40/3/1
f 41/2/1 42/5/1 43/8/1 44/3/1
f 45/2/1 46/5/1 47/8/1 48/3/1

