# Tiled2Unity generated file. Do not modify by hand.
# Wavefront file for 'ThirdLevel_mesh_0001.obj'

# Vertices (Count = 56)
v -12.8 -38.85714 0
v -13.8 -38.85714 0
v -13.8 -37.85714 0
v -12.8 -37.85714 0
v -5.485714 -39.31429 0
v -6.485714 -39.31429 0
v -6.485714 -38.31429 0
v -5.485714 -38.31429 0
v -5.942857 -39.31429 0
v -6.942857 -39.31429 0
v -6.942857 -38.31429 0
v -5.942857 -38.31429 0
v -6.4 -39.31429 0
v -7.4 -39.31429 0
v -7.4 -38.31429 0
v -6.4 -38.31429 0
v -7.314286 -39.31429 0
v -8.314286 -39.31429 0
v -8.314286 -38.31429 0
v -7.314286 -38.31429 0
v -7.771429 -39.31429 0
v -8.771429 -39.31429 0
v -8.771429 -38.31429 0
v -7.771429 -38.31429 0
v -8.228572 -39.31429 0
v -9.228572 -39.31429 0
v -9.228572 -38.31429 0
v -8.228572 -38.31429 0
v -9.142858 -39.31429 0
v -10.14286 -39.31429 0
v -10.14286 -38.31429 0
v -9.142858 -38.31429 0
v -9.6 -39.31429 0
v -10.6 -39.31429 0
v -10.6 -38.31429 0
v -9.6 -38.31429 0
v -10.05714 -39.31429 0
v -11.05714 -39.31429 0
v -11.05714 -38.31429 0
v -10.05714 -38.31429 0
v -10.97143 -39.31429 0
v -11.97143 -39.31429 0
v -11.97143 -38.31429 0
v -10.97143 -38.31429 0
v -11.42857 -39.31429 0
v -12.42857 -39.31429 0
v -12.42857 -38.31429 0
v -11.42857 -38.31429 0
v -11.88571 -39.31429 0
v -12.88571 -39.31429 0
v -12.88571 -38.31429 0
v -11.88571 -38.31429 0
v -12.8 -39.31429 0
v -13.8 -39.31429 0
v -13.8 -38.31429 0
v -12.8 -38.31429 0

# Texture cooridinates (Count = 8)
vt 0.7089716 0.232906
vt 0.785558 0.232906
vt 0.785558 0.3076923
vt 0.7089716 0.3076923
vt 0.5514223 0.6175214
vt 0.6280087 0.6175214
vt 0.6280087 0.6923077
vt 0.5514223 0.6923077

# Normal
vn 0 0 -1

# Mesh description
g ThirdLevel_mesh_0001

# Faces
f 1/1/1 2/2/1 3/3/1 4/4/1
f 5/5/1 6/6/1 7/7/1 8/8/1
f 9/5/1 10/6/1 11/7/1 12/8/1
f 13/5/1 14/6/1 15/7/1 16/8/1
f 17/5/1 18/6/1 19/7/1 20/8/1
f 21/5/1 22/6/1 23/7/1 24/8/1
f 25/5/1 26/6/1 27/7/1 28/8/1
f 29/5/1 30/6/1 31/7/1 32/8/1
f 33/5/1 34/6/1 35/7/1 36/8/1
f 37/5/1 38/6/1 39/7/1 40/8/1
f 41/5/1 42/6/1 43/7/1 44/8/1
f 45/5/1 46/6/1 47/7/1 48/8/1
f 49/5/1 50/6/1 51/7/1 52/8/1
f 53/1/1 54/2/1 55/3/1 56/4/1

