# Tiled2Unity generated file. Do not modify by hand.
# Wavefront file for 'ThirdLevel_mesh_0009.obj'

# Vertices (Count = 28)
v -63.54286 -32.45714 0
v -64.54285 -32.45714 0
v -64.54285 -31.45714 0
v -63.54286 -31.45714 0
v -58.97143 -37.94286 0
v -59.97143 -37.94286 0
v -59.97143 -36.94286 0
v -58.97143 -36.94286 0
v -58.05714 -38.4 0
v -59.05714 -38.4 0
v -59.05714 -37.4 0
v -58.05714 -37.4 0
v -56.68571 -40.22857 0
v -57.68571 -40.22857 0
v -57.68571 -39.22857 0
v -56.68571 -39.22857 0
v -55.77143 -42.05714 0
v -56.77143 -42.05714 0
v -56.77143 -41.05714 0
v -55.77143 -41.05714 0
v -53.94286 -42.97143 0
v -54.94286 -42.97143 0
v -54.94286 -41.97143 0
v -53.94286 -41.97143 0
v -52.11428 -43.88572 0
v -53.11428 -43.88572 0
v -53.11428 -42.88572 0
v -52.11428 -42.88572 0

# Texture cooridinates (Count = 4)
vt 0.4285714 0.5714285
vt 0.5 0.5714285
vt 0.5 0.7142857
vt 0.4285714 0.7142857

# Normal
vn 0 0 -1

# Mesh description
g ThirdLevel_mesh_0009

# Faces
f 1/1/1 2/2/1 3/3/1 4/4/1
f 5/1/1 6/2/1 7/3/1 8/4/1
f 9/1/1 10/2/1 11/3/1 12/4/1
f 13/1/1 14/2/1 15/3/1 16/4/1
f 17/1/1 18/2/1 19/3/1 20/4/1
f 21/1/1 22/2/1 23/3/1 24/4/1
f 25/1/1 26/2/1 27/3/1 28/4/1

