# Tiled2Unity generated file. Do not modify by hand.
# Wavefront file for 'ThirdLevel_mesh_0012.obj'

# Vertices (Count = 124)
v -3.657143 -37.48571 0
v -4.657143 -37.48571 0
v -4.657143 -36.48571 0
v -3.657143 -36.48571 0
v -4.571429 -37.48571 0
v -5.571429 -37.48571 0
v -5.571429 -36.48571 0
v -4.571429 -36.48571 0
v -5.485714 -37.48571 0
v -6.485714 -37.48571 0
v -6.485714 -36.48571 0
v -5.485714 -36.48571 0
v -6.4 -37.48571 0
v -7.4 -37.48571 0
v -7.4 -36.48571 0
v -6.4 -36.48571 0
v -7.314286 -37.48571 0
v -8.314286 -37.48571 0
v -8.314286 -36.48571 0
v -7.314286 -36.48571 0
v -8.228572 -37.48571 0
v -9.228572 -37.48571 0
v -9.228572 -36.48571 0
v -8.228572 -36.48571 0
v -9.142858 -37.48571 0
v -10.14286 -37.48571 0
v -10.14286 -36.48571 0
v -9.142858 -36.48571 0
v -10.05714 -37.48571 0
v -11.05714 -37.48571 0
v -11.05714 -36.48571 0
v -10.05714 -36.48571 0
v -10.97143 -37.48571 0
v -11.97143 -37.48571 0
v -11.97143 -36.48571 0
v -10.97143 -36.48571 0
v -11.88571 -37.48571 0
v -12.88571 -37.48571 0
v -12.88571 -36.48571 0
v -11.88571 -36.48571 0
v -3.657143 -37.94286 0
v -4.657143 -37.94286 0
v -4.657143 -36.94286 0
v -3.657143 -36.94286 0
v -4.571429 -37.94286 0
v -5.571429 -37.94286 0
v -5.571429 -36.94286 0
v -4.571429 -36.94286 0
v -5.485714 -37.94286 0
v -6.485714 -37.94286 0
v -6.485714 -36.94286 0
v -5.485714 -36.94286 0
v -6.4 -37.94286 0
v -7.4 -37.94286 0
v -7.4 -36.94286 0
v -6.4 -36.94286 0
v -7.314286 -37.94286 0
v -8.314286 -37.94286 0
v -8.314286 -36.94286 0
v -7.314286 -36.94286 0
v -8.228572 -37.94286 0
v -9.228572 -37.94286 0
v -9.228572 -36.94286 0
v -8.228572 -36.94286 0
v -9.142858 -37.94286 0
v -10.14286 -37.94286 0
v -10.14286 -36.94286 0
v -9.142858 -36.94286 0
v -10.05714 -37.94286 0
v -11.05714 -37.94286 0
v -11.05714 -36.94286 0
v -10.05714 -36.94286 0
v -10.97143 -37.94286 0
v -11.97143 -37.94286 0
v -11.97143 -36.94286 0
v -10.97143 -36.94286 0
v -11.88571 -37.94286 0
v -12.88571 -37.94286 0
v -12.88571 -36.94286 0
v -11.88571 -36.94286 0
v -5.942857 -38.85714 0
v -6.942857 -38.85714 0
v -6.942857 -37.85714 0
v -5.942857 -37.85714 0
v -6.4 -38.85714 0
v -7.4 -38.85714 0
v -7.4 -37.85714 0
v -6.4 -37.85714 0
v -6.857143 -38.85714 0
v -7.857143 -38.85714 0
v -7.857143 -37.85714 0
v -6.857143 -37.85714 0
v -7.314286 -38.85714 0
v -8.314286 -38.85714 0
v -8.314286 -37.85714 0
v -7.314286 -37.85714 0
v -8.228572 -38.85714 0
v -9.228572 -38.85714 0
v -9.228572 -37.85714 0
v -8.228572 -37.85714 0
v -9.142858 -38.85714 0
v -10.14286 -38.85714 0
v -10.14286 -37.85714 0
v -9.142858 -37.85714 0
v -10.05714 -38.85714 0
v -11.05714 -38.85714 0
v -11.05714 -37.85714 0
v -10.05714 -37.85714 0
v -10.51429 -38.85714 0
v -11.51429 -38.85714 0
v -11.51429 -37.85714 0
v -10.51429 -37.85714 0
v -10.97143 -38.85714 0
v -11.97143 -38.85714 0
v -11.97143 -37.85714 0
v -10.97143 -37.85714 0
v -11.42857 -38.85714 0
v -12.42857 -38.85714 0
v -12.42857 -37.85714 0
v -11.42857 -37.85714 0
v -11.88571 -38.85714 0
v -12.88571 -38.85714 0
v -12.88571 -37.85714 0
v -11.88571 -37.85714 0

# Texture cooridinates (Count = 16)
vt 0.8665208 0.5405983
vt 0.9431072 0.5405983
vt 0.9431072 0.6153846
vt 0.8665208 0.6153846
vt 0.5514223 0.7713675
vt 0.6280087 0.7713675
vt 0.6280087 0.8461539
vt 0.5514223 0.8461539
vt 0.5514223 0.8482906
vt 0.6280087 0.8482906
vt 0.6280087 0.9230769
vt 0.5514223 0.9230769
vt 0.7089716 0.232906
vt 0.785558 0.232906
vt 0.785558 0.3076923
vt 0.7089716 0.3076923

# Normal
vn 0 0 -1

# Mesh description
g ThirdLevel_mesh_0012

# Faces
f 1/1/1 2/2/1 3/3/1 4/4/1
f 5/1/1 6/2/1 7/3/1 8/4/1
f 9/1/1 10/2/1 11/3/1 12/4/1
f 13/1/1 14/2/1 15/3/1 16/4/1
f 17/1/1 18/2/1 19/3/1 20/4/1
f 21/1/1 22/2/1 23/3/1 24/4/1
f 25/1/1 26/2/1 27/3/1 28/4/1
f 29/1/1 30/2/1 31/3/1 32/4/1
f 33/1/1 34/2/1 35/3/1 36/4/1
f 37/1/1 38/2/1 39/3/1 40/4/1
f 41/5/1 42/6/1 43/7/1 44/8/1
f 45/9/1 46/10/1 47/11/1 48/12/1
f 49/9/1 50/10/1 51/11/1 52/12/1
f 53/5/1 54/6/1 55/7/1 56/8/1
f 57/9/1 58/10/1 59/11/1 60/12/1
f 61/5/1 62/6/1 63/7/1 64/8/1
f 65/5/1 66/6/1 67/7/1 68/8/1
f 69/9/1 70/10/1 71/11/1 72/12/1
f 73/9/1 74/10/1 75/11/1 76/12/1
f 77/5/1 78/6/1 79/7/1 80/8/1
f 81/13/1 82/14/1 83/15/1 84/16/1
f 85/13/1 86/14/1 87/15/1 88/16/1
f 89/13/1 90/14/1 91/15/1 92/16/1
f 93/13/1 94/14/1 95/15/1 96/16/1
f 97/13/1 98/14/1 99/15/1 100/16/1
f 101/13/1 102/14/1 103/15/1 104/16/1
f 105/13/1 106/14/1 107/15/1 108/16/1
f 109/13/1 110/14/1 111/15/1 112/16/1
f 113/13/1 114/14/1 115/15/1 116/16/1
f 117/13/1 118/14/1 119/15/1 120/16/1
f 121/13/1 122/14/1 123/15/1 124/16/1

