# Tiled2Unity generated file. Do not modify by hand.
# Wavefront file for 'ThirdLevel_mesh_0008.obj'

# Vertices (Count = 28)
v -186.5143 -30.62857 0
v -187.5143 -30.62857 0
v -187.5143 -29.62857 0
v -186.5143 -29.62857 0
v -186.5143 -31.54286 0
v -187.5143 -31.54286 0
v -187.5143 -30.54286 0
v -186.5143 -30.54286 0
v -172.3429 -32 0
v -173.3429 -32 0
v -173.3429 -31 0
v -172.3429 -31 0
v -174.1714 -32 0
v -175.1714 -32 0
v -175.1714 -31 0
v -174.1714 -31 0
v -185.6 -32 0
v -186.6 -32 0
v -186.6 -31 0
v -185.6 -31 0
v -187.4286 -32 0
v -188.4286 -32 0
v -188.4286 -31 0
v -187.4286 -31 0
v -186.5143 -32.45714 0
v -187.5143 -32.45714 0
v -187.5143 -31.45714 0
v -186.5143 -31.45714 0

# Texture cooridinates (Count = 22)
vt 0.9285714 0.4285714
vt 1 0.4285714
vt 1 0.5714285
vt 0.9285714 0.5714285
vt 0.8571429 0.1428571
vt 0.9285714 0.1428571
vt 0.9285714 0.2857143
vt 0.8571429 0.2857143
vt 0.5714286 0.2857143
vt 0.6428571 0.2857143
vt 0.6428571 0.4285714
vt 0.5714286 0.4285714
vt 0.5714286 0.1428571
vt 0.6428571 0.1428571
vt 0.2142857 0.2857143
vt 0.2857143 0.2857143
vt 0.2857143 0.4285714
vt 0.2142857 0.4285714
vt 0.3571429 0
vt 0.4285714 0
vt 0.4285714 0.1428571
vt 0.3571429 0.1428571

# Normal
vn 0 0 -1

# Mesh description
g ThirdLevel_mesh_0008

# Faces
f 1/1/1 2/2/1 3/3/1 4/4/1
f 5/5/1 6/6/1 7/7/1 8/8/1
f 9/9/1 10/10/1 11/11/1 12/12/1
f 13/13/1 14/14/1 15/10/1 16/9/1
f 17/15/1 18/16/1 19/17/1 20/18/1
f 21/15/1 22/16/1 23/17/1 24/18/1
f 25/19/1 26/20/1 27/21/1 28/22/1

