# Tiled2Unity generated file. Do not modify by hand.
# Wavefront file for 'FourthLevel_mesh_0007.obj'

# Vertices (Count = 68)
v -24.68571 -21.48571 0
v -25.68571 -21.48571 0
v -25.68571 -20.48571 0
v -24.68571 -20.48571 0
v -25.6 -21.48571 0
v -26.6 -21.48571 0
v -26.6 -20.48571 0
v -25.6 -20.48571 0
v -24.68571 -24.22857 0
v -25.68571 -24.22857 0
v -25.68571 -23.22857 0
v -24.68571 -23.22857 0
v -25.6 -24.22857 0
v -26.6 -24.22857 0
v -26.6 -23.22857 0
v -25.6 -23.22857 0
v -136.2286 -24.22857 0
v -137.2286 -24.22857 0
v -137.2286 -23.22857 0
v -136.2286 -23.22857 0
v -24.68571 -26.97143 0
v -25.68571 -26.97143 0
v -25.68571 -25.97143 0
v -24.68571 -25.97143 0
v -25.6 -26.97143 0
v -26.6 -26.97143 0
v -26.6 -25.97143 0
v -25.6 -25.97143 0
v -24.68571 -29.71429 0
v -25.68571 -29.71429 0
v -25.68571 -28.71429 0
v -24.68571 -28.71429 0
v -25.6 -29.71429 0
v -26.6 -29.71429 0
v -26.6 -28.71429 0
v -25.6 -28.71429 0
v -31.54286 -32.45714 0
v -32.54286 -32.45714 0
v -32.54286 -31.45714 0
v -31.54286 -31.45714 0
v -32.45714 -32.45714 0
v -33.45714 -32.45714 0
v -33.45714 -31.45714 0
v -32.45714 -31.45714 0
v -22.85714 -35.2 0
v -23.85714 -35.2 0
v -23.85714 -34.2 0
v -22.85714 -34.2 0
v -23.77143 -35.2 0
v -24.77143 -35.2 0
v -24.77143 -34.2 0
v -23.77143 -34.2 0
v -39.77143 -40.68571 0
v -40.77143 -40.68571 0
v -40.77143 -39.68571 0
v -39.77143 -39.68571 0
v -53.94286 -40.68571 0
v -54.94286 -40.68571 0
v -54.94286 -39.68571 0
v -53.94286 -39.68571 0
v -77.71429 -40.68571 0
v -78.71429 -40.68571 0
v -78.71429 -39.68571 0
v -77.71429 -39.68571 0
v -97.82858 -40.68571 0
v -98.82858 -40.68571 0
v -98.82858 -39.68571 0
v -97.82858 -39.68571 0

# Texture cooridinates (Count = 12)
vt 0.3150985 0.5405983
vt 0.3916849 0.5405983
vt 0.3916849 0.6153846
vt 0.3150985 0.6153846
vt 0.3150985 0.6944444
vt 0.3916849 0.6944444
vt 0.3916849 0.7692308
vt 0.3150985 0.7692308
vt 0.3150985 0.6175214
vt 0.3916849 0.6175214
vt 0.3916849 0.6923077
vt 0.3150985 0.6923077

# Normal
vn 0 0 -1

# Mesh description
g FourthLevel_mesh_0007

# Faces
f 1/1/1 2/2/1 3/3/1 4/4/1
f 5/5/1 6/6/1 7/7/1 8/8/1
f 9/1/1 10/2/1 11/3/1 12/4/1
f 13/5/1 14/6/1 15/7/1 16/8/1
f 17/1/1 18/2/1 19/3/1 20/4/1
f 21/1/1 22/2/1 23/3/1 24/4/1
f 25/5/1 26/6/1 27/7/1 28/8/1
f 29/1/1 30/2/1 31/3/1 32/4/1
f 33/5/1 34/6/1 35/7/1 36/8/1
f 37/9/1 38/10/1 39/11/1 40/12/1
f 41/1/1 42/2/1 43/3/1 44/4/1
f 45/1/1 46/2/1 47/3/1 48/4/1
f 49/5/1 50/6/1 51/7/1 52/8/1
f 53/9/1 54/10/1 55/11/1 56/12/1
f 57/9/1 58/10/1 59/11/1 60/12/1
f 61/9/1 62/10/1 63/11/1 64/12/1
f 65/9/1 66/10/1 67/11/1 68/12/1

