# Tiled2Unity generated file. Do not modify by hand.
# Wavefront file for 'SixthLevel_mesh_0004.obj'

# Vertices (Count = 24)
v -66.74286 -40.68571 0
v -67.74286 -40.68571 0
v -67.74286 -39.68571 0
v -66.74286 -39.68571 0
v -70.4 -41.14286 0
v -71.4 -41.14286 0
v -71.4 -40.14286 0
v -70.4 -40.14286 0
v -74.05714 -41.14286 0
v -75.05714 -41.14286 0
v -75.05714 -40.14286 0
v -74.05714 -40.14286 0
v -77.71429 -41.14286 0
v -78.71429 -41.14286 0
v -78.71429 -40.14286 0
v -77.71429 -40.14286 0
v -81.37143 -41.14286 0
v -82.37143 -41.14286 0
v -82.37143 -40.14286 0
v -81.37143 -40.14286 0
v -66.74286 -41.6 0
v -67.74286 -41.6 0
v -67.74286 -40.6 0
v -66.74286 -40.6 0

# Texture cooridinates (Count = 16)
vt 0.7089716 0.6944444
vt 0.785558 0.6944444
vt 0.785558 0.7692308
vt 0.7089716 0.7692308
vt 0.07877462 0.8482906
vt 0.1553611 0.8482906
vt 0.1553611 0.9230769
vt 0.07877462 0.9230769
vt 0.07877462 0.7713675
vt 0.1553611 0.7713675
vt 0.1553611 0.8461539
vt 0.07877462 0.8461539
vt 0.7089716 0.6175214
vt 0.785558 0.6175214
vt 0.785558 0.6923077
vt 0.7089716 0.6923077

# Normal
vn 0 0 -1

# Mesh description
g SixthLevel_mesh_0004

# Faces
f 1/1/1 2/2/1 3/3/1 4/4/1
f 5/5/1 6/6/1 7/7/1 8/8/1
f 9/5/1 10/6/1 11/7/1 12/8/1
f 13/9/1 14/10/1 15/11/1 16/12/1
f 17/9/1 18/10/1 19/11/1 20/12/1
f 21/13/1 22/14/1 23/15/1 24/16/1

