# Tiled2Unity generated file. Do not modify by hand.
# Wavefront file for 'SixthLevel_mesh_0001.obj'

# Vertices (Count = 640)
v -88.22857 -35.2 0
v -89.22857 -35.2 0
v -89.22857 -34.2 0
v -88.22857 -34.2 0
v -65.37143 -35.65714 0
v -66.37143 -35.65714 0
v -66.37143 -34.65714 0
v -65.37143 -34.65714 0
v -65.82858 -35.65714 0
v -66.82858 -35.65714 0
v -66.82858 -34.65714 0
v -65.82858 -34.65714 0
v -66.74286 -35.65714 0
v -67.74286 -35.65714 0
v -67.74286 -34.65714 0
v -66.74286 -34.65714 0
v -67.65714 -35.65714 0
v -68.65714 -35.65714 0
v -68.65714 -34.65714 0
v -67.65714 -34.65714 0
v -68.57143 -35.65714 0
v -69.57143 -35.65714 0
v -69.57143 -34.65714 0
v -68.57143 -34.65714 0
v -69.48572 -35.65714 0
v -70.48572 -35.65714 0
v -70.48572 -34.65714 0
v -69.48572 -34.65714 0
v -70.4 -35.65714 0
v -71.4 -35.65714 0
v -71.4 -34.65714 0
v -70.4 -34.65714 0
v -71.31429 -35.65714 0
v -72.31429 -35.65714 0
v -72.31429 -34.65714 0
v -71.31429 -34.65714 0
v -72.22857 -35.65714 0
v -73.22857 -35.65714 0
v -73.22857 -34.65714 0
v -72.22857 -34.65714 0
v -73.14286 -35.65714 0
v -74.14286 -35.65714 0
v -74.14286 -34.65714 0
v -73.14286 -34.65714 0
v -74.05714 -35.65714 0
v -75.05714 -35.65714 0
v -75.05714 -34.65714 0
v -74.05714 -34.65714 0
v -74.97143 -35.65714 0
v -75.97143 -35.65714 0
v -75.97143 -34.65714 0
v -74.97143 -34.65714 0
v -75.88571 -35.65714 0
v -76.88571 -35.65714 0
v -76.88571 -34.65714 0
v -75.88571 -34.65714 0
v -76.8 -35.65714 0
v -77.8 -35.65714 0
v -77.8 -34.65714 0
v -76.8 -34.65714 0
v -77.71429 -35.65714 0
v -78.71429 -35.65714 0
v -78.71429 -34.65714 0
v -77.71429 -34.65714 0
v -78.62857 -35.65714 0
v -79.62857 -35.65714 0
v -79.62857 -34.65714 0
v -78.62857 -34.65714 0
v -79.54285 -35.65714 0
v -80.54285 -35.65714 0
v -80.54285 -34.65714 0
v -79.54285 -34.65714 0
v -80.45715 -35.65714 0
v -81.45715 -35.65714 0
v -81.45715 -34.65714 0
v -80.45715 -34.65714 0
v -81.37143 -35.65714 0
v -82.37143 -35.65714 0
v -82.37143 -34.65714 0
v -81.37143 -34.65714 0
v -82.28571 -35.65714 0
v -83.28571 -35.65714 0
v -83.28571 -34.65714 0
v -82.28571 -34.65714 0
v -83.2 -35.65714 0
v -84.2 -35.65714 0
v -84.2 -34.65714 0
v -83.2 -34.65714 0
v -84.11429 -35.65714 0
v -85.11429 -35.65714 0
v -85.11429 -34.65714 0
v -84.11429 -34.65714 0
v -85.02857 -35.65714 0
v -86.02857 -35.65714 0
v -86.02857 -34.65714 0
v -85.02857 -34.65714 0
v -85.94286 -35.65714 0
v -86.94286 -35.65714 0
v -86.94286 -34.65714 0
v -85.94286 -34.65714 0
v -86.85714 -35.65714 0
v -87.85714 -35.65714 0
v -87.85714 -34.65714 0
v -86.85714 -34.65714 0
v -88.22857 -35.65714 0
v -89.22857 -35.65714 0
v -89.22857 -34.65714 0
v -88.22857 -34.65714 0
v -65.37143 -36.11428 0
v -66.37143 -36.11428 0
v -66.37143 -35.11428 0
v -65.37143 -35.11428 0
v -88.22857 -36.11428 0
v -89.22857 -36.11428 0
v -89.22857 -35.11428 0
v -88.22857 -35.11428 0
v -65.37143 -36.57143 0
v -66.37143 -36.57143 0
v -66.37143 -35.57143 0
v -65.37143 -35.57143 0
v -65.82858 -36.57143 0
v -66.82858 -36.57143 0
v -66.82858 -35.57143 0
v -65.82858 -35.57143 0
v -66.74286 -36.57143 0
v -67.74286 -36.57143 0
v -67.74286 -35.57143 0
v -66.74286 -35.57143 0
v -67.65714 -36.57143 0
v -68.65714 -36.57143 0
v -68.65714 -35.57143 0
v -67.65714 -35.57143 0
v -68.57143 -36.57143 0
v -69.57143 -36.57143 0
v -69.57143 -35.57143 0
v -68.57143 -35.57143 0
v -69.48572 -36.57143 0
v -70.48572 -36.57143 0
v -70.48572 -35.57143 0
v -69.48572 -35.57143 0
v -70.4 -36.57143 0
v -71.4 -36.57143 0
v -71.4 -35.57143 0
v -70.4 -35.57143 0
v -71.31429 -36.57143 0
v -72.31429 -36.57143 0
v -72.31429 -35.57143 0
v -71.31429 -35.57143 0
v -72.22857 -36.57143 0
v -73.22857 -36.57143 0
v -73.22857 -35.57143 0
v -72.22857 -35.57143 0
v -73.14286 -36.57143 0
v -74.14286 -36.57143 0
v -74.14286 -35.57143 0
v -73.14286 -35.57143 0
v -74.05714 -36.57143 0
v -75.05714 -36.57143 0
v -75.05714 -35.57143 0
v -74.05714 -35.57143 0
v -74.97143 -36.57143 0
v -75.97143 -36.57143 0
v -75.97143 -35.57143 0
v -74.97143 -35.57143 0
v -75.88571 -36.57143 0
v -76.88571 -36.57143 0
v -76.88571 -35.57143 0
v -75.88571 -35.57143 0
v -76.8 -36.57143 0
v -77.8 -36.57143 0
v -77.8 -35.57143 0
v -76.8 -35.57143 0
v -77.71429 -36.57143 0
v -78.71429 -36.57143 0
v -78.71429 -35.57143 0
v -77.71429 -35.57143 0
v -78.62857 -36.57143 0
v -79.62857 -36.57143 0
v -79.62857 -35.57143 0
v -78.62857 -35.57143 0
v -79.54285 -36.57143 0
v -80.54285 -36.57143 0
v -80.54285 -35.57143 0
v -79.54285 -35.57143 0
v -80.45715 -36.57143 0
v -81.45715 -36.57143 0
v -81.45715 -35.57143 0
v -80.45715 -35.57143 0
v -81.37143 -36.57143 0
v -82.37143 -36.57143 0
v -82.37143 -35.57143 0
v -81.37143 -35.57143 0
v -82.28571 -36.57143 0
v -83.28571 -36.57143 0
v -83.28571 -35.57143 0
v -82.28571 -35.57143 0
v -83.2 -36.57143 0
v -84.2 -36.57143 0
v -84.2 -35.57143 0
v -83.2 -35.57143 0
v -84.11429 -36.57143 0
v -85.11429 -36.57143 0
v -85.11429 -35.57143 0
v -84.11429 -35.57143 0
v -85.02857 -36.57143 0
v -86.02857 -36.57143 0
v -86.02857 -35.57143 0
v -85.02857 -35.57143 0
v -85.94286 -36.57143 0
v -86.94286 -36.57143 0
v -86.94286 -35.57143 0
v -85.94286 -35.57143 0
v -86.85714 -36.57143 0
v -87.85714 -36.57143 0
v -87.85714 -35.57143 0
v -86.85714 -35.57143 0
v -88.22857 -36.57143 0
v -89.22857 -36.57143 0
v -89.22857 -35.57143 0
v -88.22857 -35.57143 0
v -65.37143 -37.02857 0
v -66.37143 -37.02857 0
v -66.37143 -36.02857 0
v -65.37143 -36.02857 0
v -88.22857 -37.02857 0
v -89.22857 -37.02857 0
v -89.22857 -36.02857 0
v -88.22857 -36.02857 0
v -65.37143 -37.48571 0
v -66.37143 -37.48571 0
v -66.37143 -36.48571 0
v -65.37143 -36.48571 0
v -88.22857 -37.48571 0
v -89.22857 -37.48571 0
v -89.22857 -36.48571 0
v -88.22857 -36.48571 0
v -65.37143 -37.94286 0
v -66.37143 -37.94286 0
v -66.37143 -36.94286 0
v -65.37143 -36.94286 0
v -88.22857 -37.94286 0
v -89.22857 -37.94286 0
v -89.22857 -36.94286 0
v -88.22857 -36.94286 0
v -65.37143 -38.4 0
v -66.37143 -38.4 0
v -66.37143 -37.4 0
v -65.37143 -37.4 0
v -88.22857 -38.4 0
v -89.22857 -38.4 0
v -89.22857 -37.4 0
v -88.22857 -37.4 0
v -65.37143 -38.85714 0
v -66.37143 -38.85714 0
v -66.37143 -37.85714 0
v -65.37143 -37.85714 0
v -88.22857 -38.85714 0
v -89.22857 -38.85714 0
v -89.22857 -37.85714 0
v -88.22857 -37.85714 0
v -65.37143 -39.31429 0
v -66.37143 -39.31429 0
v -66.37143 -38.31429 0
v -65.37143 -38.31429 0
v -88.22857 -39.31429 0
v -89.22857 -39.31429 0
v -89.22857 -38.31429 0
v -88.22857 -38.31429 0
v -65.37143 -39.77143 0
v -66.37143 -39.77143 0
v -66.37143 -38.77143 0
v -65.37143 -38.77143 0
v -88.22857 -39.77143 0
v -89.22857 -39.77143 0
v -89.22857 -38.77143 0
v -88.22857 -38.77143 0
v -65.37143 -40.22857 0
v -66.37143 -40.22857 0
v -66.37143 -39.22857 0
v -65.37143 -39.22857 0
v -88.22857 -40.22857 0
v -89.22857 -40.22857 0
v -89.22857 -39.22857 0
v -88.22857 -39.22857 0
v -65.37143 -40.68571 0
v -66.37143 -40.68571 0
v -66.37143 -39.68571 0
v -65.37143 -39.68571 0
v -88.22857 -40.68571 0
v -89.22857 -40.68571 0
v -89.22857 -39.68571 0
v -88.22857 -39.68571 0
v -65.37143 -41.14286 0
v -66.37143 -41.14286 0
v -66.37143 -40.14286 0
v -65.37143 -40.14286 0
v -88.22857 -41.14286 0
v -89.22857 -41.14286 0
v -89.22857 -40.14286 0
v -88.22857 -40.14286 0
v -65.37143 -41.6 0
v -66.37143 -41.6 0
v -66.37143 -40.6 0
v -65.37143 -40.6 0
v -88.22857 -41.6 0
v -89.22857 -41.6 0
v -89.22857 -40.6 0
v -88.22857 -40.6 0
v -65.37143 -42.05714 0
v -66.37143 -42.05714 0
v -66.37143 -41.05714 0
v -65.37143 -41.05714 0
v -88.22857 -42.05714 0
v -89.22857 -42.05714 0
v -89.22857 -41.05714 0
v -88.22857 -41.05714 0
v -65.37143 -42.51429 0
v -66.37143 -42.51429 0
v -66.37143 -41.51429 0
v -65.37143 -41.51429 0
v -88.22857 -42.51429 0
v -89.22857 -42.51429 0
v -89.22857 -41.51429 0
v -88.22857 -41.51429 0
v -65.37143 -42.97143 0
v -66.37143 -42.97143 0
v -66.37143 -41.97143 0
v -65.37143 -41.97143 0
v -66.28571 -42.97143 0
v -67.28571 -42.97143 0
v -67.28571 -41.97143 0
v -66.28571 -41.97143 0
v -67.2 -42.97143 0
v -68.2 -42.97143 0
v -68.2 -41.97143 0
v -67.2 -41.97143 0
v -68.11429 -42.97143 0
v -69.11429 -42.97143 0
v -69.11429 -41.97143 0
v -68.11429 -41.97143 0
v -69.02857 -42.97143 0
v -70.02857 -42.97143 0
v -70.02857 -41.97143 0
v -69.02857 -41.97143 0
v -69.94286 -42.97143 0
v -70.94286 -42.97143 0
v -70.94286 -41.97143 0
v -69.94286 -41.97143 0
v -70.85714 -42.97143 0
v -71.85714 -42.97143 0
v -71.85714 -41.97143 0
v -70.85714 -41.97143 0
v -71.77143 -42.97143 0
v -72.77143 -42.97143 0
v -72.77143 -41.97143 0
v -71.77143 -41.97143 0
v -72.68571 -42.97143 0
v -73.68571 -42.97143 0
v -73.68571 -41.97143 0
v -72.68571 -41.97143 0
v -73.6 -42.97143 0
v -74.6 -42.97143 0
v -74.6 -41.97143 0
v -73.6 -41.97143 0
v -74.51429 -42.97143 0
v -75.51429 -42.97143 0
v -75.51429 -41.97143 0
v -74.51429 -41.97143 0
v -75.42857 -42.97143 0
v -76.42857 -42.97143 0
v -76.42857 -41.97143 0
v -75.42857 -41.97143 0
v -76.34286 -42.97143 0
v -77.34286 -42.97143 0
v -77.34286 -41.97143 0
v -76.34286 -41.97143 0
v -77.25714 -42.97143 0
v -78.25714 -42.97143 0
v -78.25714 -41.97143 0
v -77.25714 -41.97143 0
v -78.17143 -42.97143 0
v -79.17143 -42.97143 0
v -79.17143 -41.97143 0
v -78.17143 -41.97143 0
v -79.08572 -42.97143 0
v -80.08572 -42.97143 0
v -80.08572 -41.97143 0
v -79.08572 -41.97143 0
v -80 -42.97143 0
v -81 -42.97143 0
v -81 -41.97143 0
v -80 -41.97143 0
v -80.91428 -42.97143 0
v -81.91428 -42.97143 0
v -81.91428 -41.97143 0
v -80.91428 -41.97143 0
v -81.82858 -42.97143 0
v -82.82858 -42.97143 0
v -82.82858 -41.97143 0
v -81.82858 -41.97143 0
v -82.74286 -42.97143 0
v -83.74286 -42.97143 0
v -83.74286 -41.97143 0
v -82.74286 -41.97143 0
v -83.65714 -42.97143 0
v -84.65714 -42.97143 0
v -84.65714 -41.97143 0
v -83.65714 -41.97143 0
v -84.57143 -42.97143 0
v -85.57143 -42.97143 0
v -85.57143 -41.97143 0
v -84.57143 -41.97143 0
v -85.48572 -42.97143 0
v -86.48572 -42.97143 0
v -86.48572 -41.97143 0
v -85.48572 -41.97143 0
v -86.4 -42.97143 0
v -87.4 -42.97143 0
v -87.4 -41.97143 0
v -86.4 -41.97143 0
v -87.31429 -42.97143 0
v -88.31429 -42.97143 0
v -88.31429 -41.97143 0
v -87.31429 -41.97143 0
v -88.22857 -42.97143 0
v -89.22857 -42.97143 0
v -89.22857 -41.97143 0
v -88.22857 -41.97143 0
v -89.14286 -42.97143 0
v -90.14286 -42.97143 0
v -90.14286 -41.97143 0
v -89.14286 -41.97143 0
v -66.28571 -43.88572 0
v -67.28571 -43.88572 0
v -67.28571 -42.88572 0
v -66.28571 -42.88572 0
v -67.2 -43.88572 0
v -68.2 -43.88572 0
v -68.2 -42.88572 0
v -67.2 -42.88572 0
v -68.11429 -43.88572 0
v -69.11429 -43.88572 0
v -69.11429 -42.88572 0
v -68.11429 -42.88572 0
v -69.02857 -43.88572 0
v -70.02857 -43.88572 0
v -70.02857 -42.88572 0
v -69.02857 -42.88572 0
v -69.94286 -43.88572 0
v -70.94286 -43.88572 0
v -70.94286 -42.88572 0
v -69.94286 -42.88572 0
v -70.85714 -43.88572 0
v -71.85714 -43.88572 0
v -71.85714 -42.88572 0
v -70.85714 -42.88572 0
v -71.77143 -43.88572 0
v -72.77143 -43.88572 0
v -72.77143 -42.88572 0
v -71.77143 -42.88572 0
v -72.68571 -43.88572 0
v -73.68571 -43.88572 0
v -73.68571 -42.88572 0
v -72.68571 -42.88572 0
v -73.6 -43.88572 0
v -74.6 -43.88572 0
v -74.6 -42.88572 0
v -73.6 -42.88572 0
v -74.51429 -43.88572 0
v -75.51429 -43.88572 0
v -75.51429 -42.88572 0
v -74.51429 -42.88572 0
v -75.42857 -43.88572 0
v -76.42857 -43.88572 0
v -76.42857 -42.88572 0
v -75.42857 -42.88572 0
v -76.34286 -43.88572 0
v -77.34286 -43.88572 0
v -77.34286 -42.88572 0
v -76.34286 -42.88572 0
v -77.25714 -43.88572 0
v -78.25714 -43.88572 0
v -78.25714 -42.88572 0
v -77.25714 -42.88572 0
v -78.17143 -43.88572 0
v -79.17143 -43.88572 0
v -79.17143 -42.88572 0
v -78.17143 -42.88572 0
v -79.08572 -43.88572 0
v -80.08572 -43.88572 0
v -80.08572 -42.88572 0
v -79.08572 -42.88572 0
v -80 -43.88572 0
v -81 -43.88572 0
v -81 -42.88572 0
v -80 -42.88572 0
v -80.91428 -43.88572 0
v -81.91428 -43.88572 0
v -81.91428 -42.88572 0
v -80.91428 -42.88572 0
v -81.82858 -43.88572 0
v -82.82858 -43.88572 0
v -82.82858 -42.88572 0
v -81.82858 -42.88572 0
v -82.74286 -43.88572 0
v -83.74286 -43.88572 0
v -83.74286 -42.88572 0
v -82.74286 -42.88572 0
v -83.65714 -43.88572 0
v -84.65714 -43.88572 0
v -84.65714 -42.88572 0
v -83.65714 -42.88572 0
v -84.57143 -43.88572 0
v -85.57143 -43.88572 0
v -85.57143 -42.88572 0
v -84.57143 -42.88572 0
v -85.48572 -43.88572 0
v -86.48572 -43.88572 0
v -86.48572 -42.88572 0
v -85.48572 -42.88572 0
v -86.4 -43.88572 0
v -87.4 -43.88572 0
v -87.4 -42.88572 0
v -86.4 -42.88572 0
v -87.31429 -43.88572 0
v -88.31429 -43.88572 0
v -88.31429 -42.88572 0
v -87.31429 -42.88572 0
v -88.22857 -43.88572 0
v -89.22857 -43.88572 0
v -89.22857 -42.88572 0
v -88.22857 -42.88572 0
v -89.14286 -43.88572 0
v -90.14286 -43.88572 0
v -90.14286 -42.88572 0
v -89.14286 -42.88572 0
v -66.28571 -44.8 0
v -67.28571 -44.8 0
v -67.28571 -43.8 0
v -66.28571 -43.8 0
v -67.2 -44.8 0
v -68.2 -44.8 0
v -68.2 -43.8 0
v -67.2 -43.8 0
v -68.11429 -44.8 0
v -69.11429 -44.8 0
v -69.11429 -43.8 0
v -68.11429 -43.8 0
v -69.02857 -44.8 0
v -70.02857 -44.8 0
v -70.02857 -43.8 0
v -69.02857 -43.8 0
v -69.94286 -44.8 0
v -70.94286 -44.8 0
v -70.94286 -43.8 0
v -69.94286 -43.8 0
v -70.85714 -44.8 0
v -71.85714 -44.8 0
v -71.85714 -43.8 0
v -70.85714 -43.8 0
v -71.77143 -44.8 0
v -72.77143 -44.8 0
v -72.77143 -43.8 0
v -71.77143 -43.8 0
v -72.68571 -44.8 0
v -73.68571 -44.8 0
v -73.68571 -43.8 0
v -72.68571 -43.8 0
v -73.6 -44.8 0
v -74.6 -44.8 0
v -74.6 -43.8 0
v -73.6 -43.8 0
v -74.51429 -44.8 0
v -75.51429 -44.8 0
v -75.51429 -43.8 0
v -74.51429 -43.8 0
v -75.42857 -44.8 0
v -76.42857 -44.8 0
v -76.42857 -43.8 0
v -75.42857 -43.8 0
v -76.34286 -44.8 0
v -77.34286 -44.8 0
v -77.34286 -43.8 0
v -76.34286 -43.8 0
v -77.25714 -44.8 0
v -78.25714 -44.8 0
v -78.25714 -43.8 0
v -77.25714 -43.8 0
v -78.17143 -44.8 0
v -79.17143 -44.8 0
v -79.17143 -43.8 0
v -78.17143 -43.8 0
v -79.08572 -44.8 0
v -80.08572 -44.8 0
v -80.08572 -43.8 0
v -79.08572 -43.8 0
v -80 -44.8 0
v -81 -44.8 0
v -81 -43.8 0
v -80 -43.8 0
v -80.91428 -44.8 0
v -81.91428 -44.8 0
v -81.91428 -43.8 0
v -80.91428 -43.8 0
v -81.82858 -44.8 0
v -82.82858 -44.8 0
v -82.82858 -43.8 0
v -81.82858 -43.8 0
v -82.74286 -44.8 0
v -83.74286 -44.8 0
v -83.74286 -43.8 0
v -82.74286 -43.8 0
v -83.65714 -44.8 0
v -84.65714 -44.8 0
v -84.65714 -43.8 0
v -83.65714 -43.8 0
v -84.57143 -44.8 0
v -85.57143 -44.8 0
v -85.57143 -43.8 0
v -84.57143 -43.8 0
v -85.48572 -44.8 0
v -86.48572 -44.8 0
v -86.48572 -43.8 0
v -85.48572 -43.8 0
v -86.4 -44.8 0
v -87.4 -44.8 0
v -87.4 -43.8 0
v -86.4 -43.8 0
v -87.31429 -44.8 0
v -88.31429 -44.8 0
v -88.31429 -43.8 0
v -87.31429 -43.8 0
v -88.22857 -44.8 0
v -89.22857 -44.8 0
v -89.22857 -43.8 0
v -88.22857 -43.8 0
v -89.14286 -44.8 0
v -90.14286 -44.8 0
v -90.14286 -43.8 0
v -89.14286 -43.8 0

# Texture cooridinates (Count = 20)
vt 0.7089716 0.232906
vt 0.785558 0.232906
vt 0.785558 0.3076923
vt 0.7089716 0.3076923
vt 0.8665208 0.3098291
vt 0.9431072 0.3098291
vt 0.9431072 0.3846154
vt 0.8665208 0.3846154
vt 0.8665208 0.5405983
vt 0.9431072 0.5405983
vt 0.9431072 0.6153846
vt 0.8665208 0.6153846
vt 0.8665208 0.7713675
vt 0.9431072 0.7713675
vt 0.9431072 0.8461539
vt 0.8665208 0.8461539
vt 0.5514223 0.1559829
vt 0.6280087 0.1559829
vt 0.6280087 0.2307692
vt 0.5514223 0.2307692

# Normal
vn 0 0 -1

# Mesh description
g SixthLevel_mesh_0001

# Faces
f 1/1/1 2/2/1 3/3/1 4/4/1
f 5/1/1 6/2/1 7/3/1 8/4/1
f 9/5/1 10/6/1 11/7/1 12/8/1
f 13/5/1 14/6/1 15/7/1 16/8/1
f 17/5/1 18/6/1 19/7/1 20/8/1
f 21/5/1 22/6/1 23/7/1 24/8/1
f 25/5/1 26/6/1 27/7/1 28/8/1
f 29/5/1 30/6/1 31/7/1 32/8/1
f 33/5/1 34/6/1 35/7/1 36/8/1
f 37/5/1 38/6/1 39/7/1 40/8/1
f 41/5/1 42/6/1 43/7/1 44/8/1
f 45/5/1 46/6/1 47/7/1 48/8/1
f 49/5/1 50/6/1 51/7/1 52/8/1
f 53/5/1 54/6/1 55/7/1 56/8/1
f 57/5/1 58/6/1 59/7/1 60/8/1
f 61/5/1 62/6/1 63/7/1 64/8/1
f 65/5/1 66/6/1 67/7/1 68/8/1
f 69/5/1 70/6/1 71/7/1 72/8/1
f 73/5/1 74/6/1 75/7/1 76/8/1
f 77/5/1 78/6/1 79/7/1 80/8/1
f 81/5/1 82/6/1 83/7/1 84/8/1
f 85/5/1 86/6/1 87/7/1 88/8/1
f 89/5/1 90/6/1 91/7/1 92/8/1
f 93/5/1 94/6/1 95/7/1 96/8/1
f 97/5/1 98/6/1 99/7/1 100/8/1
f 101/5/1 102/6/1 103/7/1 104/8/1
f 105/1/1 106/2/1 107/3/1 108/4/1
f 109/1/1 110/2/1 111/3/1 112/4/1
f 113/1/1 114/2/1 115/3/1 116/4/1
f 117/1/1 118/2/1 119/3/1 120/4/1
f 121/9/1 122/10/1 123/11/1 124/12/1
f 125/9/1 126/10/1 127/11/1 128/12/1
f 129/9/1 130/10/1 131/11/1 132/12/1
f 133/9/1 134/10/1 135/11/1 136/12/1
f 137/9/1 138/10/1 139/11/1 140/12/1
f 141/9/1 142/10/1 143/11/1 144/12/1
f 145/9/1 146/10/1 147/11/1 148/12/1
f 149/9/1 150/10/1 151/11/1 152/12/1
f 153/9/1 154/10/1 155/11/1 156/12/1
f 157/9/1 158/10/1 159/11/1 160/12/1
f 161/9/1 162/10/1 163/11/1 164/12/1
f 165/9/1 166/10/1 167/11/1 168/12/1
f 169/9/1 170/10/1 171/11/1 172/12/1
f 173/9/1 174/10/1 175/11/1 176/12/1
f 177/9/1 178/10/1 179/11/1 180/12/1
f 181/9/1 182/10/1 183/11/1 184/12/1
f 185/9/1 186/10/1 187/11/1 188/12/1
f 189/9/1 190/10/1 191/11/1 192/12/1
f 193/9/1 194/10/1 195/11/1 196/12/1
f 197/9/1 198/10/1 199/11/1 200/12/1
f 201/9/1 202/10/1 203/11/1 204/12/1
f 205/9/1 206/10/1 207/11/1 208/12/1
f 209/9/1 210/10/1 211/11/1 212/12/1
f 213/9/1 214/10/1 215/11/1 216/12/1
f 217/1/1 218/2/1 219/3/1 220/4/1
f 221/1/1 222/2/1 223/3/1 224/4/1
f 225/1/1 226/2/1 227/3/1 228/4/1
f 229/1/1 230/2/1 231/3/1 232/4/1
f 233/1/1 234/2/1 235/3/1 236/4/1
f 237/1/1 238/2/1 239/3/1 240/4/1
f 241/1/1 242/2/1 243/3/1 244/4/1
f 245/1/1 246/2/1 247/3/1 248/4/1
f 249/1/1 250/2/1 251/3/1 252/4/1
f 253/1/1 254/2/1 255/3/1 256/4/1
f 257/1/1 258/2/1 259/3/1 260/4/1
f 261/1/1 262/2/1 263/3/1 264/4/1
f 265/1/1 266/2/1 267/3/1 268/4/1
f 269/1/1 270/2/1 271/3/1 272/4/1
f 273/1/1 274/2/1 275/3/1 276/4/1
f 277/1/1 278/2/1 279/3/1 280/4/1
f 281/1/1 282/2/1 283/3/1 284/4/1
f 285/1/1 286/2/1 287/3/1 288/4/1
f 289/1/1 290/2/1 291/3/1 292/4/1
f 293/1/1 294/2/1 295/3/1 296/4/1
f 297/1/1 298/2/1 299/3/1 300/4/1
f 301/1/1 302/2/1 303/3/1 304/4/1
f 305/1/1 306/2/1 307/3/1 308/4/1
f 309/1/1 310/2/1 311/3/1 312/4/1
f 313/1/1 314/2/1 315/3/1 316/4/1
f 317/1/1 318/2/1 319/3/1 320/4/1
f 321/1/1 322/2/1 323/3/1 324/4/1
f 325/1/1 326/2/1 327/3/1 328/4/1
f 329/13/1 330/14/1 331/15/1 332/16/1
f 333/13/1 334/14/1 335/15/1 336/16/1
f 337/13/1 338/14/1 339/15/1 340/16/1
f 341/13/1 342/14/1 343/15/1 344/16/1
f 345/13/1 346/14/1 347/15/1 348/16/1
f 349/13/1 350/14/1 351/15/1 352/16/1
f 353/13/1 354/14/1 355/15/1 356/16/1
f 357/13/1 358/14/1 359/15/1 360/16/1
f 361/13/1 362/14/1 363/15/1 364/16/1
f 365/13/1 366/14/1 367/15/1 368/16/1
f 369/13/1 370/14/1 371/15/1 372/16/1
f 373/13/1 374/14/1 375/15/1 376/16/1
f 377/13/1 378/14/1 379/15/1 380/16/1
f 381/13/1 382/14/1 383/15/1 384/16/1
f 385/13/1 386/14/1 387/15/1 388/16/1
f 389/13/1 390/14/1 391/15/1 392/16/1
f 393/13/1 394/14/1 395/15/1 396/16/1
f 397/13/1 398/14/1 399/15/1 400/16/1
f 401/13/1 402/14/1 403/15/1 404/16/1
f 405/13/1 406/14/1 407/15/1 408/16/1
f 409/13/1 410/14/1 411/15/1 412/16/1
f 413/13/1 414/14/1 415/15/1 416/16/1
f 417/13/1 418/14/1 419/15/1 420/16/1
f 421/13/1 422/14/1 423/15/1 424/16/1
f 425/13/1 426/14/1 427/15/1 428/16/1
f 429/13/1 430/14/1 431/15/1 432/16/1
f 433/17/1 434/18/1 435/19/1 436/20/1
f 437/17/1 438/18/1 439/19/1 440/20/1
f 441/17/1 442/18/1 443/19/1 444/20/1
f 445/17/1 446/18/1 447/19/1 448/20/1
f 449/17/1 450/18/1 451/19/1 452/20/1
f 453/17/1 454/18/1 455/19/1 456/20/1
f 457/17/1 458/18/1 459/19/1 460/20/1
f 461/17/1 462/18/1 463/19/1 464/20/1
f 465/17/1 466/18/1 467/19/1 468/20/1
f 469/17/1 470/18/1 471/19/1 472/20/1
f 473/17/1 474/18/1 475/19/1 476/20/1
f 477/17/1 478/18/1 479/19/1 480/20/1
f 481/17/1 482/18/1 483/19/1 484/20/1
f 485/17/1 486/18/1 487/19/1 488/20/1
f 489/17/1 490/18/1 491/19/1 492/20/1
f 493/17/1 494/18/1 495/19/1 496/20/1
f 497/17/1 498/18/1 499/19/1 500/20/1
f 501/17/1 502/18/1 503/19/1 504/20/1
f 505/17/1 506/18/1 507/19/1 508/20/1
f 509/17/1 510/18/1 511/19/1 512/20/1
f 513/17/1 514/18/1 515/19/1 516/20/1
f 517/17/1 518/18/1 519/19/1 520/20/1
f 521/17/1 522/18/1 523/19/1 524/20/1
f 525/17/1 526/18/1 527/19/1 528/20/1
f 529/17/1 530/18/1 531/19/1 532/20/1
f 533/17/1 534/18/1 535/19/1 536/20/1
f 537/17/1 538/18/1 539/19/1 540/20/1
f 541/17/1 542/18/1 543/19/1 544/20/1
f 545/17/1 546/18/1 547/19/1 548/20/1
f 549/17/1 550/18/1 551/19/1 552/20/1
f 553/17/1 554/18/1 555/19/1 556/20/1
f 557/17/1 558/18/1 559/19/1 560/20/1
f 561/17/1 562/18/1 563/19/1 564/20/1
f 565/17/1 566/18/1 567/19/1 568/20/1
f 569/17/1 570/18/1 571/19/1 572/20/1
f 573/17/1 574/18/1 575/19/1 576/20/1
f 577/17/1 578/18/1 579/19/1 580/20/1
f 581/17/1 582/18/1 583/19/1 584/20/1
f 585/17/1 586/18/1 587/19/1 588/20/1
f 589/17/1 590/18/1 591/19/1 592/20/1
f 593/17/1 594/18/1 595/19/1 596/20/1
f 597/17/1 598/18/1 599/19/1 600/20/1
f 601/17/1 602/18/1 603/19/1 604/20/1
f 605/17/1 606/18/1 607/19/1 608/20/1
f 609/17/1 610/18/1 611/19/1 612/20/1
f 613/17/1 614/18/1 615/19/1 616/20/1
f 617/17/1 618/18/1 619/19/1 620/20/1
f 621/17/1 622/18/1 623/19/1 624/20/1
f 625/17/1 626/18/1 627/19/1 628/20/1
f 629/17/1 630/18/1 631/19/1 632/20/1
f 633/17/1 634/18/1 635/19/1 636/20/1
f 637/17/1 638/18/1 639/19/1 640/20/1

