# Tiled2Unity generated file. Do not modify by hand.
# Wavefront file for 'FirstLevel_mesh_0005.obj'

# Vertices (Count = 36)
v -21.94286 -45.71429 0
v -22.94286 -45.71429 0
v -22.94286 -44.71429 0
v -21.94286 -44.71429 0
v -22.85714 -45.71429 0
v -23.85714 -45.71429 0
v -23.85714 -44.71429 0
v -22.85714 -44.71429 0
v -23.77143 -45.71429 0
v -24.77143 -45.71429 0
v -24.77143 -44.71429 0
v -23.77143 -44.71429 0
v -24.68571 -45.71429 0
v -25.68571 -45.71429 0
v -25.68571 -44.71429 0
v -24.68571 -44.71429 0
v -25.6 -45.71429 0
v -26.6 -45.71429 0
v -26.6 -44.71429 0
v -25.6 -44.71429 0
v -26.51429 -45.71429 0
v -27.51429 -45.71429 0
v -27.51429 -44.71429 0
v -26.51429 -44.71429 0
v -27.42857 -45.71429 0
v -28.42857 -45.71429 0
v -28.42857 -44.71429 0
v -27.42857 -44.71429 0
v -28.34286 -45.71429 0
v -29.34286 -45.71429 0
v -29.34286 -44.71429 0
v -28.34286 -44.71429 0
v -29.25714 -45.71429 0
v -30.25714 -45.71429 0
v -30.25714 -44.71429 0
v -29.25714 -44.71429 0

# Texture cooridinates (Count = 4)
vt 0.4726477 0.3098291
vt 0.5492342 0.3098291
vt 0.5492342 0.3846154
vt 0.4726477 0.3846154

# Normal
vn 0 0 -1

# Mesh description
g FirstLevel_mesh_0005

# Faces
f 1/1/1 2/2/1 3/3/1 4/4/1
f 5/1/1 6/2/1 7/3/1 8/4/1
f 9/1/1 10/2/1 11/3/1 12/4/1
f 13/1/1 14/2/1 15/3/1 16/4/1
f 17/1/1 18/2/1 19/3/1 20/4/1
f 21/1/1 22/2/1 23/3/1 24/4/1
f 25/1/1 26/2/1 27/3/1 28/4/1
f 29/1/1 30/2/1 31/3/1 32/4/1
f 33/1/1 34/2/1 35/3/1 36/4/1

