# Tiled2Unity generated file. Do not modify by hand.
# Wavefront file for 'FirstLevel_mesh_0009.obj'

# Vertices (Count = 8)
v -59.42857 -42.97143 0
v -60.42857 -42.97143 0
v -60.42857 -41.97143 0
v -59.42857 -41.97143 0
v -0.4571429 -44.8 0
v -1.457143 -44.8 0
v -1.457143 -43.8 0
v -0.4571429 -43.8 0

# Texture cooridinates (Count = 8)
vt 0.3150985 0.5405983
vt 0.3916849 0.5405983
vt 0.3916849 0.6153846
vt 0.3150985 0.6153846
vt 0.3150985 0.6944444
vt 0.3916849 0.6944444
vt 0.3916849 0.7692308
vt 0.3150985 0.7692308

# Normal
vn 0 0 -1

# Mesh description
g FirstLevel_mesh_0009

# Faces
f 1/1/1 2/2/1 3/3/1 4/4/1
f 5/5/1 6/6/1 7/7/1 8/8/1

